# Blender v2.76 (sub 0) OBJ File: 'stade.blend'
# www.blender.org
mtllib playerAI.mtl
o Circle.001
v 0.182936 -1.964631 0.524595
v 0.289140 -1.964631 0.515879
v 0.391602 -1.964631 0.486610
v 0.486385 -1.964631 0.437915
v 0.569847 -1.964631 0.371664
v 0.638781 -1.964631 0.290403
v 0.690537 -1.964631 0.197256
v 0.723126 -1.964631 0.095801
v 0.735296 -1.964631 -0.010062
v 0.726580 -1.964631 -0.116265
v 0.697312 -1.964631 -0.218728
v 0.648616 -1.964631 -0.313511
v 0.582365 -1.964631 -0.396973
v 0.501104 -1.964631 -0.465907
v 0.407957 -1.964631 -0.517663
v 0.306502 -1.964631 -0.550252
v 0.200639 -1.964631 -0.562422
v 0.094435 -1.964631 -0.553706
v -0.008027 -1.964631 -0.524437
v -0.102810 -1.964631 -0.475742
v -0.186273 -1.964631 -0.409491
v -0.255206 -1.964631 -0.328230
v -0.306962 -1.964631 -0.235083
v -0.339551 -1.964631 -0.133628
v -0.351721 -1.964631 -0.027764
v -0.343005 -1.964631 0.078439
v -0.313736 -1.964631 0.180901
v -0.265041 -1.964631 0.275685
v -0.198790 -1.964631 0.359147
v -0.117529 -1.964631 0.428080
v -0.024381 -1.964631 0.479836
v 0.077074 -1.964631 0.512425
v 0.273053 -1.964631 0.427508
v 0.184399 -1.964631 0.434784
v 0.358584 -1.964631 0.403076
v 0.437705 -1.964631 0.362427
v 0.507375 -1.964631 0.307124
v 0.564918 -1.964631 0.239291
v 0.608122 -1.964631 0.161535
v 0.635326 -1.964631 0.076845
v 0.645485 -1.964631 -0.011525
v 0.638209 -1.964631 -0.100179
v 0.613777 -1.964631 -0.185710
v 0.573128 -1.964631 -0.264831
v 0.517825 -1.964631 -0.334501
v 0.449992 -1.964631 -0.392044
v 0.372236 -1.964631 -0.435248
v 0.287546 -1.964631 -0.462452
v 0.199176 -1.964631 -0.472611
v 0.110522 -1.964631 -0.465334
v 0.024991 -1.964631 -0.440903
v -0.054130 -1.964631 -0.400254
v -0.123800 -1.964631 -0.344950
v -0.181343 -1.964631 -0.277117
v -0.224547 -1.964631 -0.199362
v -0.251751 -1.964631 -0.114672
v -0.261910 -1.964631 -0.026302
v -0.254633 -1.964631 0.062352
v -0.230201 -1.964631 0.147883
v -0.189553 -1.964631 0.227004
v -0.134249 -1.964631 0.296675
v -0.066416 -1.964631 0.354217
v 0.011339 -1.964631 0.397421
v 0.096030 -1.964631 0.424625
v 0.289140 -1.973214 0.515879
v 0.182936 -1.973214 0.524595
v 0.391602 -1.973214 0.486610
v 0.486385 -1.973214 0.437915
v 0.569847 -1.973214 0.371664
v 0.638781 -1.973214 0.290403
v 0.690537 -1.973214 0.197256
v 0.723126 -1.973214 0.095801
v 0.735296 -1.973214 -0.010062
v 0.726580 -1.973214 -0.116265
v 0.697312 -1.973214 -0.218728
v 0.648616 -1.973214 -0.313511
v 0.582365 -1.973214 -0.396973
v 0.501104 -1.973214 -0.465907
v 0.407957 -1.973214 -0.517663
v 0.306502 -1.973214 -0.550252
v 0.200639 -1.973214 -0.562422
v 0.094435 -1.973214 -0.553706
v -0.008027 -1.973214 -0.524437
v -0.102810 -1.973214 -0.475742
v -0.186273 -1.973214 -0.409491
v -0.255206 -1.973214 -0.328230
v -0.306962 -1.973214 -0.235083
v -0.339551 -1.973214 -0.133628
v -0.351721 -1.973214 -0.027764
v -0.343005 -1.973214 0.078439
v -0.313736 -1.973214 0.180901
v -0.265041 -1.973214 0.275685
v -0.198790 -1.973214 0.359147
v -0.117529 -1.973214 0.428080
v -0.024381 -1.973214 0.479836
v 0.077074 -1.973214 0.512425
v 0.273053 -1.973214 0.427508
v 0.184399 -1.973214 0.434784
v 0.358584 -1.973214 0.403076
v 0.437705 -1.973214 0.362427
v 0.507375 -1.973214 0.307124
v 0.564918 -1.973214 0.239291
v 0.608122 -1.973214 0.161535
v 0.635326 -1.973214 0.076845
v 0.645485 -1.973214 -0.011525
v 0.638209 -1.973214 -0.100179
v 0.613777 -1.973214 -0.185710
v 0.573128 -1.973214 -0.264831
v 0.517825 -1.973214 -0.334501
v 0.449992 -1.973214 -0.392044
v 0.372236 -1.973214 -0.435248
v 0.287546 -1.973214 -0.462452
v 0.199176 -1.973214 -0.472611
v 0.110522 -1.973214 -0.465334
v 0.024991 -1.973214 -0.440903
v -0.054130 -1.973214 -0.400254
v -0.123800 -1.973214 -0.344950
v -0.181343 -1.973214 -0.277117
v -0.224547 -1.973214 -0.199362
v -0.251751 -1.973214 -0.114672
v -0.261910 -1.973214 -0.026302
v -0.254633 -1.973214 0.062352
v -0.230201 -1.973214 0.147883
v -0.189553 -1.973214 0.227004
v -0.134249 -1.973214 0.296675
v -0.066416 -1.973214 0.354217
v 0.011339 -1.973214 0.397421
v 0.096030 -1.973214 0.424625
vn 0.000000 -1.000000 0.000000
vn 0.000000 1.000000 0.000000
vn 0.993500 0.000000 0.114200
vn -0.457000 0.000000 -0.889500
vn 0.996600 0.000000 -0.081800
vn -0.621700 0.000000 -0.783200
vn 0.961500 0.000000 -0.274700
vn -0.762600 0.000000 -0.646900
vn 0.889500 0.000000 -0.457000
vn -0.081800 0.000000 -0.996600
vn -0.874100 0.000000 -0.485700
vn 0.783200 0.000000 -0.621700
vn -0.274700 0.000000 -0.961500
vn -0.952100 0.000000 -0.305800
vn 0.646900 0.000000 -0.762600
vn -0.993500 0.000000 -0.114200
vn 0.485700 0.000000 -0.874100
vn -0.996600 0.000000 0.081800
vn 0.305800 0.000000 -0.952100
vn -0.961500 0.000000 0.274700
vn 0.114200 0.000000 -0.993500
vn -0.889500 0.000000 0.457000
vn 0.081800 0.000000 0.996600
vn -0.783200 0.000000 0.621700
vn 0.274700 0.000000 0.961500
vn -0.646900 0.000000 0.762600
vn 0.457000 0.000000 0.889500
vn -0.485700 0.000000 0.874100
vn 0.621700 0.000000 0.783200
vn -0.305800 0.000000 0.952100
vn 0.762600 0.000000 0.646900
vn -0.114200 0.000000 0.993500
vn 0.874100 0.000000 0.485700
vn 0.952100 0.000000 0.305800
usemtl Material.010
s off
f 4//1 36//1 37//1 5//1
f 31//1 63//1 64//1 32//1
f 18//1 50//1 51//1 19//1
f 5//1 37//1 38//1 6//1
f 32//1 64//1 34//1 1//1
f 19//1 51//1 52//1 20//1
f 6//1 38//1 39//1 7//1
f 20//1 52//1 53//1 21//1
f 7//1 39//1 40//1 8//1
f 21//1 53//1 54//1 22//1
f 8//1 40//1 41//1 9//1
f 22//1 54//1 55//1 23//1
f 9//1 41//1 42//1 10//1
f 23//1 55//1 56//1 24//1
f 10//1 42//1 43//1 11//1
f 24//1 56//1 57//1 25//1
f 11//1 43//1 44//1 12//1
f 25//1 57//1 58//1 26//1
f 12//1 44//1 45//1 13//1
f 26//1 58//1 59//1 27//1
f 13//1 45//1 46//1 14//1
f 27//1 59//1 60//1 28//1
f 14//1 46//1 47//1 15//1
f 1//1 34//1 33//1 2//1
f 28//1 60//1 61//1 29//1
f 15//1 47//1 48//1 16//1
f 2//1 33//1 35//1 3//1
f 29//1 61//1 62//1 30//1
f 16//1 48//1 49//1 17//1
f 3//1 35//1 36//1 4//1
f 30//1 62//1 63//1 31//1
f 17//1 49//1 50//1 18//1
f 68//2 69//2 101//2 100//2
f 95//2 96//2 128//2 127//2
f 82//2 83//2 115//2 114//2
f 69//2 70//2 102//2 101//2
f 96//2 66//2 98//2 128//2
f 83//2 84//2 116//2 115//2
f 70//2 71//2 103//2 102//2
f 84//2 85//2 117//2 116//2
f 71//2 72//2 104//2 103//2
f 85//2 86//2 118//2 117//2
f 72//2 73//2 105//2 104//2
f 86//2 87//2 119//2 118//2
f 73//2 74//2 106//2 105//2
f 87//2 88//2 120//2 119//2
f 74//2 75//2 107//2 106//2
f 88//2 89//2 121//2 120//2
f 75//2 76//2 108//2 107//2
f 89//2 90//2 122//2 121//2
f 76//2 77//2 109//2 108//2
f 90//2 91//2 123//2 122//2
f 77//2 78//2 110//2 109//2
f 91//2 92//2 124//2 123//2
f 78//2 79//2 111//2 110//2
f 66//2 65//2 97//2 98//2
f 92//2 93//2 125//2 124//2
f 79//2 80//2 112//2 111//2
f 65//2 67//2 99//2 97//2
f 93//2 94//2 126//2 125//2
f 80//2 81//2 113//2 112//2
f 67//2 68//2 100//2 99//2
f 94//2 95//2 127//2 126//2
f 81//2 82//2 114//2 113//2
f 24//3 25//3 89//3 88//3
f 52//4 51//4 115//4 116//4
f 25//5 26//5 90//5 89//5
f 53//6 52//6 116//6 117//6
f 26//7 27//7 91//7 90//7
f 54//8 53//8 117//8 118//8
f 27//9 28//9 92//9 91//9
f 1//10 2//10 65//10 66//10
f 55//11 54//11 118//11 119//11
f 28//12 29//12 93//12 92//12
f 2//13 3//13 67//13 65//13
f 56//14 55//14 119//14 120//14
f 29//15 30//15 94//15 93//15
f 3//4 4//4 68//4 67//4
f 57//16 56//16 120//16 121//16
f 30//17 31//17 95//17 94//17
f 4//6 5//6 69//6 68//6
f 58//18 57//18 121//18 122//18
f 31//19 32//19 96//19 95//19
f 5//8 6//8 70//8 69//8
f 59//20 58//20 122//20 123//20
f 32//21 1//21 66//21 96//21
f 6//11 7//11 71//11 70//11
f 60//22 59//22 123//22 124//22
f 33//23 34//23 98//23 97//23
f 7//14 8//14 72//14 71//14
f 61//24 60//24 124//24 125//24
f 35//25 33//25 97//25 99//25
f 8//16 9//16 73//16 72//16
f 62//26 61//26 125//26 126//26
f 36//27 35//27 99//27 100//27
f 9//18 10//18 74//18 73//18
f 63//28 62//28 126//28 127//28
f 37//29 36//29 100//29 101//29
f 10//20 11//20 75//20 74//20
f 64//30 63//30 127//30 128//30
f 38//31 37//31 101//31 102//31
f 11//22 12//22 76//22 75//22
f 34//32 64//32 128//32 98//32
f 39//33 38//33 102//33 103//33
f 12//24 13//24 77//24 76//24
f 40//34 39//34 103//34 104//34
f 13//26 14//26 78//26 77//26
f 41//3 40//3 104//3 105//3
f 14//28 15//28 79//28 78//28
f 42//5 41//5 105//5 106//5
f 15//30 16//30 80//30 79//30
f 43//7 42//7 106//7 107//7
f 16//32 17//32 81//32 80//32
f 44//9 43//9 107//9 108//9
f 17//23 18//23 82//23 81//23
f 45//12 44//12 108//12 109//12
f 18//25 19//25 83//25 82//25
f 46//15 45//15 109//15 110//15
f 19//27 20//27 84//27 83//27
f 47//17 46//17 110//17 111//17
f 20//29 21//29 85//29 84//29
f 48//19 47//19 111//19 112//19
f 21//31 22//31 86//31 85//31
f 49//21 48//21 112//21 113//21
f 22//33 23//33 87//33 86//33
f 50//10 49//10 113//10 114//10
f 23//34 24//34 88//34 87//34
f 51//13 50//13 114//13 115//13
o Text_Mesh
v 1.249937 -1.952011 0.033737
v 1.251219 -1.952011 -0.048253
v 0.780434 -1.952011 -0.257636
v 0.779074 -1.952011 -0.170647
v 1.152590 -1.952011 -0.008790
v 0.774198 -1.952011 0.141315
v 0.772838 -1.952011 0.228304
v 0.764440 -1.952011 -0.095642
v 0.521470 -1.952011 -0.099440
v 0.520016 -1.952011 -0.006451
v 0.762987 -1.952011 -0.002654
vn 0.000000 1.000000 0.000000
usemtl Material.013
s off
f 132//35 130//35 131//35
f 133//35 130//35 132//35
f 133//35 129//35 130//35
f 134//35 129//35 133//35
f 134//35 135//35 129//35
f 138//35 136//35 137//35
f 138//35 139//35 136//35
