# Blender v2.76 (sub 0) OBJ File: 'stade.blend'
# www.blender.org
mtllib stade2.mtl
o nmodel_10_27_goal.001
v -49.477570 5.702744 4.272985
v -51.542572 5.368423 4.288274
v -51.541199 5.368426 4.114293
v -49.477570 5.702744 4.114293
v -49.477570 5.855529 4.114293
v -51.708038 5.534901 4.114293
v -51.711700 5.534901 4.288274
v -49.477570 5.855525 4.272985
v -52.244293 1.503089 4.288273
v -52.244293 1.505572 4.114293
v -52.410461 1.507850 4.114293
v -52.410461 1.500556 4.288273
v -49.518738 5.702744 4.121755
v -49.518738 5.702741 -4.077765
v -49.344788 5.702744 -4.076514
v -49.344788 5.702744 4.121755
v -49.344788 5.869339 4.288259
v -49.344788 5.869339 -4.243644
v -49.518738 5.869339 -4.247298
v -49.518738 5.869274 4.288259
v -49.518738 1.503091 -4.077140
v -49.344788 1.505574 -4.077140
v -49.344788 1.507852 -4.243645
v -49.518738 1.500558 -4.243645
v -49.518738 1.503089 4.288259
v -49.344788 1.505572 4.288259
v -49.344788 1.507850 4.121755
v -49.518738 1.500556 4.121755
v -49.468872 5.702744 -4.069697
v -51.542572 5.368423 -4.069697
v -51.541199 5.368427 -4.243648
v -49.468872 5.702744 -4.238612
v -49.468872 5.864174 -4.238612
v -51.708038 5.534902 -4.243648
v -51.711700 5.534902 -4.069697
v -49.468872 5.864171 -4.069697
v -52.244293 1.503091 -4.069697
v -52.244293 1.505574 -4.243649
v -52.410461 1.507852 -4.243649
v -52.410461 1.500558 -4.069697
v 49.494781 5.702744 -4.232024
v 51.559784 5.368423 -4.247283
v 51.557922 5.368427 -4.073333
v 49.494781 5.702744 -4.073333
v 49.494781 5.855530 -4.073333
v 51.725739 5.534902 -4.073333
v 51.728912 5.534902 -4.247283
v 49.494781 5.855526 -4.232024
v 52.261017 1.503091 -4.247283
v 52.261017 1.505574 -4.073334
v 52.427673 1.507852 -4.073334
v 52.427673 1.500558 -4.247283
v 49.535461 5.702744 -4.080764
v 49.535461 5.702740 4.118726
v 49.362000 5.702744 4.117505
v 49.362000 5.702744 -4.080764
v 49.362000 5.869339 -4.247298
v 49.362000 5.869339 4.284604
v 49.535461 5.869339 4.288259
v 49.535461 5.869275 -4.247298
v 49.535461 1.503089 4.118100
v 49.362000 1.505572 4.118100
v 49.362000 1.507850 4.284604
v 49.535461 1.500556 4.284604
v 49.535461 1.503091 -4.247299
v 49.362000 1.505574 -4.247299
v 49.362000 1.507852 -4.080764
v 49.535461 1.500558 -4.080764
v 49.486084 5.702744 4.110658
v 51.559784 5.368423 4.110658
v 51.557922 5.368426 4.284608
v 49.486084 5.702744 4.279573
v 49.486084 5.864173 4.279573
v 51.725739 5.534901 4.284608
v 51.728912 5.534901 4.110658
v 49.486084 5.864170 4.110658
v 52.261017 1.503089 4.110658
v 52.261017 1.505572 4.284607
v 52.427673 1.507850 4.284607
v 52.427673 1.500556 4.110658
vn 0.112700 -0.663000 0.740100
vn 0.097700 -0.566900 0.817900
vn 0.093300 -0.576200 -0.811900
vn 0.107500 -0.663500 -0.740400
vn -0.105100 0.731800 -0.673300
vn -0.122800 0.854700 -0.504300
vn -0.118700 0.851600 0.510500
vn -0.100900 0.735800 0.669700
vn 0.576800 -0.104800 0.810200
vn 0.649800 -0.118100 0.750800
vn 0.664000 -0.120700 -0.738000
vn 0.576400 -0.104800 -0.810400
vn -0.837800 0.145600 -0.526200
vn -0.738700 0.128400 -0.661700
vn -0.733000 0.127400 0.668200
vn -0.842600 0.146500 0.518300
vn -0.832000 -0.554700 0.000000
vn -0.834200 -0.551500 0.000000
vn 0.831100 -0.556200 0.000000
vn 0.832000 -0.554700 0.000000
vn 0.447200 0.894400 0.000000
vn 0.441600 0.897200 0.000000
vn -0.448200 0.894000 0.000000
vn -0.447400 0.894300 0.000000
vn -0.831700 -0.000000 0.555200
vn -0.714900 -0.000000 0.699200
vn 0.699500 -0.000000 0.714600
vn 0.831200 -0.000000 0.555900
vn 0.455400 -0.000400 -0.890300
vn 0.704600 -0.000300 -0.709600
vn -0.709800 -0.000300 -0.704400
vn -0.443300 -0.000400 -0.896400
vn -0.447100 -0.000000 0.894500
vn -0.713700 -0.000000 0.700400
vn 0.700800 -0.000000 0.713400
vn 0.447200 -0.000000 0.894400
vn 0.832100 -0.000000 -0.554700
vn 0.700800 -0.000000 -0.713300
vn -0.713200 -0.000000 -0.701000
vn -0.832100 -0.000000 -0.554700
vn 0.107000 -0.663300 0.740700
vn 0.092100 -0.570900 0.815900
vn 0.094600 -0.574900 -0.812700
vn 0.108800 -0.663700 -0.740100
vn -0.106200 0.733200 -0.671700
vn -0.124200 0.853600 -0.506000
vn -0.125000 0.850600 0.510800
vn -0.107700 0.733300 0.671300
vn -0.112600 -0.662900 -0.740200
vn -0.097500 -0.566200 -0.818500
vn -0.093400 -0.576500 0.811800
vn -0.107500 -0.663600 0.740400
vn 0.105100 0.731900 0.673200
vn 0.122800 0.855100 0.503600
vn 0.118700 0.851900 -0.510000
vn 0.100900 0.735700 -0.669800
vn -0.576500 -0.104800 -0.810400
vn -0.649400 -0.118000 -0.751200
vn -0.664400 -0.120700 0.737500
vn -0.577200 -0.104900 0.809900
vn 0.837700 0.145600 0.526400
vn 0.739200 0.128400 0.661100
vn 0.732500 0.127300 -0.668800
vn 0.842000 0.146300 -0.519300
vn 0.832100 -0.554700 -0.000000
vn 0.834100 -0.551500 -0.000000
vn -0.831100 -0.556200 -0.000000
vn -0.447200 0.894500 -0.000000
vn -0.441600 0.897200 -0.000000
vn 0.448200 0.893900 -0.000000
vn 0.447300 0.894400 -0.000000
vn 0.831700 0.000000 -0.555200
vn 0.714900 0.000000 -0.699200
vn -0.699500 0.000000 -0.714600
vn -0.831300 0.000000 -0.555900
vn -0.455400 -0.000400 0.890300
vn -0.704600 -0.000300 0.709600
vn 0.709800 -0.000300 0.704400
vn 0.443300 -0.000400 0.896400
vn 0.447100 0.000000 -0.894500
vn 0.713700 0.000000 -0.700400
vn -0.700800 0.000000 -0.713400
vn -0.447200 0.000000 -0.894400
vn -0.832100 0.000000 0.554700
vn -0.700800 0.000000 0.713300
vn 0.713200 0.000000 0.700900
vn 0.832000 0.000000 0.554700
vn -0.107000 -0.663200 -0.740700
vn -0.092000 -0.570100 -0.816400
vn -0.094700 -0.575100 0.812600
vn -0.108800 -0.663700 0.740000
vn 0.106200 0.733300 0.671600
vn 0.124300 0.853900 0.505300
vn 0.125000 0.850900 -0.510200
vn 0.107700 0.733300 -0.671400
usemtl collision
s 1
f 1//1 2//2 3//3 4//4
f 5//5 6//6 7//7 8//8
f 4//4 3//3 6//6 5//5
f 8//8 7//7 2//2 1//1
f 2//9 9//10 10//11 3//12
f 6//13 11//14 12//15 7//16
f 3//12 10//11 11//14 6//13
f 7//16 12//15 9//10 2//9
f 13//17 14//18 15//19 16//20
f 17//21 18//22 19//23 20//24
f 16//20 15//19 18//22 17//21
f 20//24 19//23 14//18 13//17
f 14//25 21//26 22//27 15//28
f 18//29 23//30 24//31 19//32
f 15//28 22//27 23//30 18//29
f 19//32 24//31 21//26 14//25
f 20//33 25//34 26//35 17//36
f 16//37 27//38 28//39 13//40
f 17//36 26//35 27//38 16//37
f 13//40 28//39 25//34 20//33
f 29//41 30//42 31//43 32//44
f 33//45 34//46 35//47 36//48
f 32//44 31//43 34//46 33//45
f 36//48 35//47 30//42 29//41
f 30//9 37//10 38//11 31//12
f 34//13 39//14 40//15 35//16
f 31//12 38//11 39//14 34//13
f 35//16 40//15 37//10 30//9
f 41//49 42//50 43//51 44//52
f 45//53 46//54 47//55 48//56
f 44//52 43//51 46//54 45//53
f 48//56 47//55 42//50 41//49
f 42//57 49//58 50//59 43//60
f 46//61 51//62 52//63 47//64
f 43//60 50//59 51//62 46//61
f 47//64 52//63 49//58 42//57
f 53//65 54//66 55//67 56//17
f 57//68 58//69 59//70 60//71
f 56//17 55//67 58//69 57//68
f 60//71 59//70 54//66 53//65
f 54//72 61//73 62//74 55//75
f 58//76 63//77 64//78 59//79
f 55//75 62//74 63//77 58//76
f 59//79 64//78 61//73 54//72
f 60//80 65//81 66//82 57//83
f 56//84 67//85 68//86 53//87
f 57//83 66//82 67//85 56//84
f 53//87 68//86 65//81 60//80
f 69//88 70//89 71//90 72//91
f 73//92 74//93 75//94 76//95
f 72//91 71//90 74//93 73//92
f 76//95 75//94 70//89 69//88
f 70//57 77//58 78//59 71//60
f 74//61 79//62 80//63 75//64
f 71//60 78//59 79//62 74//61
f 75//64 80//63 77//58 70//57
o nmodel_10_27_main.002
v 50.175659 4.406869 42.093994
v 50.050140 4.406869 42.453278
v 50.175690 1.989693 42.093994
v 56.081635 1.989694 38.134430
v -50.124573 1.989693 42.093994
v -56.030518 1.989694 38.134430
v -14.813622 1.989707 -45.105103
v 50.175690 1.989707 -42.094238
v 56.081635 4.406882 -38.134399
v 56.081635 1.989706 -38.134399
v -50.124573 1.989707 -42.094238
v -56.030518 4.406882 -38.134399
v -56.030518 1.989706 -38.134399
v 59.469452 4.406882 -35.421143
v -64.739319 4.406879 -21.139465
v -63.147217 4.406881 -28.649902
v -59.417786 4.406882 -35.421143
v 46.330688 4.406869 44.237122
v 63.198364 4.406881 -28.649902
v 64.790436 4.406879 -21.139465
v 38.682434 1.989679 38.382202
v 0.000000 1.989679 38.382202
v 0.000000 1.989693 40.410889
v 38.841949 1.989693 40.410889
v 51.619904 1.989685 0.000000
v 51.619904 1.989681 25.444519
v 53.648834 1.989696 25.604248
v 53.648834 1.989700 0.000000
v 38.682434 1.989691 -38.382080
v 38.841949 1.989707 -40.411133
v 0.000000 1.989707 -40.411133
v 0.000000 1.989691 -38.382080
v -51.671356 1.989681 25.444519
v -51.671356 1.989685 0.000000
v -53.700287 1.989700 0.000000
v -53.700287 1.989696 25.604248
v -50.872345 4.227392 -34.307312
v -47.596527 4.227392 -37.583130
v -47.737762 4.227392 -37.777100
v -51.066284 4.227392 -34.448547
v -43.468903 4.227393 -39.686157
v -38.893646 4.227393 -40.411133
v -38.912384 4.227393 -40.652344
v -43.543030 4.227393 -39.914307
v -52.975616 4.227391 -30.179932
v -53.203552 4.227391 -30.254028
v -53.700287 4.227390 -25.604187
v -53.941559 4.227390 -25.623169
v -53.700287 4.227382 25.604187
v -53.700287 4.227386 0.000001
v -53.941559 4.227386 0.000001
v -53.941559 4.227382 25.622925
v -47.596527 4.227380 37.582886
v -50.872345 4.227380 34.307312
v -51.066284 4.227380 34.448303
v -47.737762 4.227380 37.777100
v 38.841949 4.227379 40.410858
v 0.000000 4.227379 40.410858
v 0.000000 4.227379 40.652130
v 38.861176 4.227379 40.652130
v -38.893646 4.227379 40.410858
v -43.468903 4.227379 39.686157
v -43.543030 4.227379 39.914337
v -38.912384 4.227379 40.652130
v -52.975616 4.227381 30.179688
v -53.203552 4.227381 30.253784
v 50.820892 4.227380 34.307312
v 47.545563 4.227380 37.582886
v 47.685822 4.227380 37.777100
v 51.015320 4.227380 34.448303
v 43.417450 4.227379 39.686157
v 43.491821 4.227379 39.914337
v 52.924164 4.227381 30.179688
v 53.152588 4.227381 30.253784
v 53.648834 4.227382 25.604187
v 53.890106 4.227382 25.622925
v 53.648834 4.227386 0.000001
v 53.890106 4.227386 0.000001
v 47.545563 4.227392 -37.583130
v 50.820892 4.227392 -34.307312
v 51.015320 4.227392 -34.448547
v 47.685822 4.227392 -37.777100
v 0.000000 4.227393 -40.411133
v 38.841949 4.227393 -40.411133
v 38.861176 4.227393 -40.652344
v 0.000000 4.227393 -40.652344
v 43.417450 4.227393 -39.686157
v 43.491821 4.227393 -39.914307
v 52.924164 4.227391 -30.179932
v 53.152588 4.227391 -30.254028
v 53.648834 4.227390 -25.604187
v 53.890106 4.227390 -25.623169
v -47.596527 1.989706 -37.583130
v -50.872345 1.989706 -34.307495
v -38.893646 1.989707 -40.411133
v -43.468903 1.989706 -39.686157
v -52.975616 1.989705 -30.179932
v -53.700287 1.989704 -25.604370
v -50.872345 1.989694 34.307343
v -47.596527 1.989694 37.582916
v -43.468903 1.989694 39.686188
v -38.893646 1.989693 40.410889
v -52.975616 1.989695 30.179718
v 47.545563 1.989694 37.582916
v 50.820892 1.989694 34.307343
v 43.417450 1.989694 39.686188
v 52.924164 1.989695 30.179718
v 50.820892 1.989706 -34.307495
v 47.545563 1.989706 -37.583130
v 43.417450 1.989706 -39.686157
v 52.924164 1.989705 -30.179932
v 53.648834 1.989704 -25.604370
v -47.737762 1.989706 -37.777100
v -51.066284 1.989706 -34.448547
v -38.912384 1.989707 -40.652344
v -43.543030 1.989707 -39.914307
v -53.203552 1.989705 -30.254028
v -53.941559 1.989704 -25.623169
v -53.941559 1.989700 0.000000
v -53.941559 1.989696 25.622925
v -51.066284 1.989694 34.448303
v -47.737762 1.989694 37.777100
v 0.000000 1.989693 40.652130
v 38.861176 1.989693 40.652130
v -43.543030 1.989693 39.914337
v -38.912384 1.989693 40.652130
v -53.203552 1.989695 30.253784
v 47.685822 1.989694 37.777100
v 51.015320 1.989694 34.448303
v 43.491821 1.989693 39.914337
v 53.152588 1.989695 30.253784
v 53.890106 1.989696 25.622925
v 53.890106 1.989700 0.000000
v 51.015320 1.989706 -34.448547
v 47.685822 1.989706 -37.777100
v 38.860992 1.989707 -40.652344
v 0.000000 1.989707 -40.652344
v 43.491821 1.989707 -39.914307
v 53.152588 1.989705 -30.254028
v 53.890106 1.989704 -25.623169
v 46.239777 4.406869 43.940582
v 46.239777 1.989693 43.940582
v 59.225067 1.989694 35.230347
v 64.478851 4.406876 0.000001
v 64.790436 4.406876 0.000001
v 64.478851 1.989697 21.112915
v 62.906189 1.989695 28.547729
v 38.182800 1.989693 45.105103
v 0.000000 1.989693 45.105103
v 64.478851 1.989700 0.000000
v -46.188660 1.989686 43.940582
v -59.173950 1.989694 35.230347
v -64.427734 1.989697 21.112915
v -62.855042 1.989695 28.547729
v -38.131683 1.989693 45.105103
v -7.962833 1.989707 -45.105103
v -38.131683 1.989707 -45.105103
v -0.043482 1.989707 -45.105103
v 38.182800 1.989707 -45.105103
v 46.239777 1.989707 -43.940552
v 59.225067 1.989706 -35.230347
v 59.225067 4.406882 -35.230347
v 62.906189 4.406881 -28.547974
v 64.478851 4.406879 -21.113037
v 64.478851 1.989703 -21.113037
v 62.906189 1.989705 -28.547974
v -46.188660 1.989707 -43.940552
v -59.173950 4.406882 -35.230347
v -59.173950 1.989706 -35.230347
v -64.427734 4.406879 -21.113037
v -62.855042 4.406881 -28.547974
v -64.427734 4.406876 0.000001
v -64.427734 1.989703 -21.113037
v -62.855042 1.989705 -28.547974
v -64.427734 1.989700 0.000000
v 38.682434 1.989681 25.444519
v 38.682434 1.989685 0.000000
v 0.000000 1.989685 0.000000
v 0.000000 1.989681 25.444519
v -46.411743 1.989691 -35.951965
v -49.241028 1.989690 -33.122192
v -38.733887 1.989689 -25.444641
v -38.733887 1.989691 -38.382141
v -42.845886 1.989691 -37.768738
v -51.058258 1.989690 -29.556824
v -51.671356 1.989689 -25.444641
v -38.733887 1.989685 0.000000
v -38.733887 1.989681 25.444519
v -49.241028 1.989680 33.122314
v -46.411743 1.989679 35.951874
v -42.845886 1.989679 37.768616
v -38.733887 1.989679 38.382202
v -51.058258 1.989680 29.556732
v 46.360291 1.989679 35.951874
v 49.190063 1.989680 33.122314
v 42.794434 1.989679 37.768616
v 51.006317 1.989680 29.556732
v 49.190063 1.989690 -33.122192
v 46.360291 1.989691 -35.951965
v 38.682434 1.989689 -25.444641
v 0.000000 1.989689 -25.444641
v 42.794434 1.989691 -37.768738
v 51.006317 1.989690 -29.556824
v 51.619904 1.989689 -25.444641
v 53.656097 1.989693 40.792450
v 53.656097 1.989707 -40.792725
v -53.707550 1.989707 -40.792725
v -53.707550 1.989693 40.792450
vn 0.000000 1.000000 0.000000
vn 0.587800 -0.000000 0.809000
vn 0.809000 -0.000000 0.587800
vn 0.078500 0.000000 0.996900
vn 0.309000 0.000000 0.951000
vn 0.951100 -0.000000 0.309000
vn 0.996900 -0.000000 0.078500
vn 1.000000 -0.000000 0.000000
vn 0.996900 -0.000000 -0.078500
vn 0.809000 -0.000000 -0.587800
vn 0.587800 -0.000000 -0.809000
vn 0.000000 -0.000000 -1.000000
vn -0.078500 -0.000000 -0.996900
vn 0.309000 -0.000000 -0.951100
vn 0.078500 -0.000000 -0.996900
vn 0.951100 -0.000000 -0.309000
vn -0.587800 -0.000000 -0.809000
vn -0.809000 -0.000000 -0.587800
vn -0.309000 -0.000000 -0.951100
vn -0.951100 -0.000000 -0.309000
vn -0.996900 -0.000000 -0.078500
vn -1.000000 -0.000000 0.000000
vn -0.809000 -0.000000 0.587800
vn -0.587800 -0.000000 0.809000
vn -0.078500 0.000000 0.996900
vn 0.000000 0.000000 1.000000
vn -0.309000 0.000000 0.951100
vn -0.951100 -0.000000 0.309000
vn -0.996900 -0.000000 0.078500
vn -0.078900 0.000000 -0.996900
vn -0.309500 0.000000 -0.950900
vn -0.950900 0.000000 -0.309500
vn -0.996900 0.000000 -0.078900
vn -0.996900 0.000000 0.078900
vn 0.078900 0.000000 0.996900
vn -0.309400 0.000000 0.950900
vn -0.078900 0.000000 0.996900
vn -0.950900 0.000000 0.309500
vn 0.309500 0.000000 0.950900
vn 0.950900 0.000000 0.309400
vn 0.996900 0.000000 0.078900
vn 0.587700 0.000000 -0.809000
vn 0.078900 -0.000000 -0.996900
vn 0.309500 -0.000000 -0.950900
vn 0.950900 0.000000 -0.309400
vn 0.996900 0.000000 -0.078900
vn -0.424700 -0.000000 -0.905300
vn -0.678600 0.000000 0.734500
vn -0.787400 0.000000 0.616500
vn -0.994600 0.000000 0.104000
vn -0.937300 0.000000 0.348500
vn 0.678600 0.000000 0.734500
vn 0.787400 0.000000 0.616500
vn 0.994600 0.000000 0.104000
vn 0.937300 0.000000 0.348500
usemtl collision
s 1
f 101//96 102//96 103//96 104//96
f 105//96 106//96 107//96 108//96
f 109//96 110//96 111//96 112//96
f 113//96 114//96 115//96 116//96
f 117//96 118//96 119//96 120//96
f 121//96 122//96 123//96 124//96
f 118//96 121//96 124//96 119//96
f 125//96 117//96 120//96 126//96
f 127//96 125//96 126//96 128//96
f 129//96 130//96 131//96 132//96
f 133//96 134//96 135//96 136//96
f 137//96 138//96 139//96 140//96
f 141//96 142//96 143//96 144//96
f 142//96 133//96 136//96 143//96
f 134//96 145//96 146//96 135//96
f 145//96 129//96 132//96 146//96
f 147//96 148//96 149//96 150//96
f 151//96 137//96 140//96 152//96
f 148//96 151//96 152//96 149//96
f 153//96 147//96 150//96 154//96
f 155//96 153//96 154//96 156//96
f 157//96 155//96 156//96 158//96
f 159//96 160//96 161//96 162//96
f 163//96 164//96 165//96 166//96
f 164//96 167//96 168//96 165//96
f 167//96 159//96 162//96 168//96
f 160//96 169//96 170//96 161//96
f 169//96 171//96 172//96 170//96
f 173//97 118//97 117//98 174//98
f 175//99 122//99 121//100 176//100
f 176//100 121//100 118//97 173//97
f 174//98 117//98 125//101 177//101
f 177//101 125//101 127//102 178//102
f 115//103 130//103 129//104 116//104
f 179//105 134//105 133//106 180//106
f 103//107 138//107 137//108 104//108
f 181//109 142//109 141//110 182//110
f 180//106 133//106 142//109 181//109
f 183//111 145//111 134//105 179//105
f 116//104 129//104 145//111 183//111
f 184//112 148//112 147//113 185//113
f 104//108 137//108 151//114 186//114
f 186//114 151//114 148//112 184//112
f 185//113 147//113 153//115 187//115
f 187//115 153//115 155//116 107//116
f 107//116 155//116 157//117 108//117
f 188//118 160//118 159//119 189//119
f 110//120 164//120 163//121 111//121
f 190//122 167//122 164//120 110//120
f 189//119 159//119 167//122 190//122
f 191//123 169//123 160//118 188//118
f 192//124 171//124 169//123 191//123
f 193//112 194//113 120//113 119//112
f 195//125 196//126 124//126 123//125
f 196//126 193//112 119//112 124//126
f 194//113 197//127 126//127 120//113
f 197//127 198//128 128//128 126//127
f 199//117 200//129 132//129 131//117
f 201//118 202//119 136//119 135//118
f 203//121 204//130 140//130 139//121
f 205//131 206//132 144//132 143//131
f 202//119 205//131 143//131 136//119
f 207//133 201//118 135//118 146//133
f 200//129 207//133 146//133 132//129
f 208//97 209//98 150//98 149//97
f 204//130 210//134 152//134 140//130
f 210//134 208//97 149//97 152//134
f 209//98 211//135 154//135 150//98
f 211//135 212//136 156//136 154//135
f 212//136 213//103 158//103 156//136
f 214//105 215//137 162//137 161//105
f 216//138 217//107 166//107 165//138
f 218//139 216//138 165//138 168//139
f 215//137 218//139 168//139 162//137
f 219//140 214//105 161//105 170//140
f 220//141 219//140 170//140 172//141
f 81//96 221//96 98//96 82//96
f 81//142 83//142 222//142 221//142
f 89//143 90//143 241//144 242//144
f 99//96 243//96 244//96 100//96
f 94//96 242//96 243//96 99//96
f 245//145 244//145 243//146 246//146
f 246//146 243//146 242//144 241//144
f 92//147 248//148 249//148 93//147
f 96//96 95//96 250//96 251//96
f 97//96 96//96 251//96 248//96
f 253//149 254//150 251//150 250//149
f 254//150 249//148 248//148 251//150
f 256//96 257//96 258//96 259//96
f 260//96 261//96 262//96
f 263//96 264//96 262//96
f 264//96 260//96 262//96
f 261//96 265//96 262//96
f 265//96 266//96 262//96
f 267//96 114//96 113//96 268//96
f 269//96 270//96 268//96
f 101//96 256//96 259//96 102//96
f 271//96 272//96 268//96
f 270//96 271//96 268//96
f 273//96 269//96 268//96
f 113//96 273//96 268//96
f 274//96 275//96 256//96
f 101//96 276//96 256//96
f 276//96 274//96 256//96
f 275//96 277//96 256//96
f 277//96 106//96 256//96
f 105//96 257//96 256//96 106//96
f 278//96 279//96 280//96
f 280//96 109//96 112//96 281//96
f 282//96 109//96 280//96
f 279//96 282//96 280//96
f 283//96 278//96 280//96
f 284//96 283//96 280//96
f 173//96 174//96 261//96 260//96
f 175//96 176//96 264//96 263//96
f 176//96 173//96 260//96 264//96
f 174//96 177//96 265//96 261//96
f 177//96 178//96 266//96 265//96
f 179//96 180//96 270//96 269//96
f 181//96 182//96 272//96 271//96
f 180//96 181//96 271//96 270//96
f 183//96 179//96 269//96 273//96
f 116//96 183//96 273//96 113//96
f 184//96 185//96 275//96 274//96
f 104//96 186//96 276//96 101//96
f 186//96 184//96 274//96 276//96
f 185//96 187//96 277//96 275//96
f 187//96 107//96 106//96 277//96
f 188//96 189//96 279//96 278//96
f 190//96 110//96 109//96 282//96
f 189//96 190//96 282//96 279//96
f 191//96 188//96 278//96 283//96
f 192//96 191//96 283//96 284//96
f 236//96 87//96 195//96 217//96
f 247//96 196//96 195//96 237//96
f 287//96 193//96 196//96 247//96 91//96
f 249//96 194//96 193//96 287//96 93//96
f 254//96 197//96 194//96 249//96
f 253//96 198//96 197//96 254//96
f 200//96 199//96 255//96 233//96
f 204//96 203//96 229//96 228//96
f 231//96 235//96 206//96 205//96
f 288//96 85//96 231//96 205//96 202//96
f 232//96 86//96 288//96 202//96 201//96
f 234//96 232//96 201//96 207//96
f 233//96 234//96 207//96 200//96
f 222//96 210//96 204//96 228//96
f 285//96 208//96 210//96 222//96 83//96
f 223//96 209//96 208//96 285//96 84//96
f 227//96 211//96 209//96 223//96
f 226//96 212//96 211//96 227//96
f 213//96 212//96 226//96 230//96
f 195//96 87//96 237//96
f 240//96 239//96 216//96 218//96
f 286//96 88//96 240//96 218//96 215//96
f 241//96 90//96 286//96 215//96 214//96
f 246//96 241//96 214//96 219//96
f 245//96 246//96 219//96 220//96
f 244//96 224//96 225//96 100//96
f 245//145 230//117 224//117 244//145
f 220//96 213//96 230//96 245//96
f 158//103 213//103 220//141 172//141
f 171//96 157//96 158//96 172//96
f 108//117 157//117 171//124 192//124
f 284//96 105//96 108//96 192//96
f 284//96 280//96 257//96 105//96
f 258//96 257//96 280//96 281//96
f 262//96 266//96 114//96 267//96
f 115//96 114//96 266//96 178//96
f 178//102 127//102 130//103 115//103
f 131//96 130//96 127//96 128//96
f 198//128 199//117 131//117 128//128
f 255//96 199//96 198//96 253//96
f 252//103 255//103 253//149 250//149
f 217//107 195//125 123//125 166//107
f 122//96 163//96 166//96 123//96
f 111//121 163//121 122//99 175//99
f 112//96 111//96 175//96 263//96
f 281//96 112//96 263//96 262//96
f 267//96 258//96 281//96 262//96
f 259//96 258//96 267//96 268//96
f 102//96 259//96 268//96 272//96
f 103//96 102//96 272//96 182//96
f 182//110 141//110 138//107 103//107
f 139//96 138//96 141//96 144//96
f 206//132 203//121 139//121 144//132
f 229//96 203//96 206//96 235//96
f 238//96 217//96 216//96 239//96
f 236//96 217//96 238//96
