# Blender v2.76 (sub 0) OBJ File: 'stade.blend'
# www.blender.org
mtllib player_000056.mtl
o Cube.007
v -0.078813 -0.137506 0.301408
v -0.078813 1.000622 0.301408
v -0.078813 -0.137506 -0.155508
v -0.078813 1.000622 -0.155508
v 0.332917 -0.137506 0.301408
v 0.332917 1.000622 0.301408
v 0.332917 -0.137506 -0.155508
v 0.332917 1.000622 -0.155508
v -0.078813 1.000622 -0.021790
v -0.078813 -0.137506 -0.021790
v 0.332917 1.000622 -0.021790
v 0.332917 -0.137506 -0.021790
v -0.078813 -0.137506 0.050815
v 0.332917 1.000622 0.050815
v -0.078813 1.000622 0.050815
v 0.332917 -0.137506 0.050815
vn -1.000000 0.000000 0.000000
vn 0.000000 0.000000 -1.000000
vn 1.000000 0.000000 0.000000
vn 0.000000 0.000000 1.000000
vn 0.000000 -1.000000 0.000000
vn 0.000000 1.000000 0.000000
usemtl Material.004
s off
f 9//1 4//1 3//1 10//1
f 4//2 8//2 7//2 3//2
f 14//3 6//3 5//3 16//3
f 6//4 2//4 1//4 5//4
f 10//5 3//5 7//5 12//5
f 11//6 8//6 4//6 9//6
f 13//5 10//5 12//5 16//5
f 8//3 11//3 12//3 7//3
f 2//1 15//1 13//1 1//1
f 1//5 13//5 16//5 5//5
f 6//6 14//6 15//6 2//6
usemtl Material.005
f 14//6 11//6 9//6 15//6
f 15//1 9//1 10//1 13//1
f 11//3 14//3 16//3 12//3
o Cube.013
v 0.340280 -0.250995 0.522824
v -0.152754 0.774799 0.522824
v 0.340280 -0.250995 0.327124
v -0.152754 0.774799 0.327124
v 0.711372 -0.072635 0.522824
v 0.218337 0.953160 0.522824
v 0.711372 -0.072635 0.327124
v 0.218337 0.953160 0.327124
vn -0.901300 -0.433200 0.000000
vn 0.000000 0.000000 -1.000000
vn 0.901300 0.433200 0.000000
vn -0.000000 0.000000 1.000000
vn 0.433200 -0.901300 0.000000
vn -0.433200 0.901300 0.000000
usemtl Material.002
s off
f 18//7 20//7 19//7 17//7
f 20//8 24//8 23//8 19//8
f 24//9 22//9 21//9 23//9
f 22//10 18//10 17//10 21//10
f 17//11 19//11 23//11 21//11
f 22//12 24//12 20//12 18//12
o Cube.012
v -0.221840 -0.106582 -0.195219
v -0.088487 1.023707 -0.195219
v -0.221840 -0.106582 -0.390919
v -0.088487 1.023707 -0.390919
v 0.187054 -0.154824 -0.195219
v 0.320407 0.975465 -0.195219
v 0.187054 -0.154824 -0.390919
v 0.320407 0.975465 -0.390919
vn -0.993100 0.117200 0.000000
vn 0.000000 0.000000 -1.000000
vn 0.993100 -0.117200 0.000000
vn 0.000000 0.000000 1.000000
vn -0.117200 -0.993100 0.000000
vn 0.117200 0.993100 0.000000
usemtl Material.002
s off
f 26//13 28//13 27//13 25//13
f 28//14 32//14 31//14 27//14
f 32//15 30//15 29//15 31//15
f 30//16 26//16 25//16 29//16
f 25//17 27//17 31//17 29//17
f 30//18 32//18 28//18 26//18
o Cube.010
v -0.445981 -1.063767 0.301408
v 0.042056 -0.035586 0.301408
v -0.445981 -1.063767 0.105707
v 0.042056 -0.035586 0.105707
v -0.074026 -1.240319 0.301408
v 0.414011 -0.212139 0.301408
v -0.074026 -1.240319 0.105707
v 0.414011 -0.212139 0.105707
vn -0.903400 0.428800 0.000000
vn 0.000000 0.000000 -1.000000
vn 0.903400 -0.428800 0.000000
vn -0.000000 0.000000 1.000000
vn -0.428800 -0.903400 0.000000
vn 0.428800 0.903400 0.000000
usemtl Material.002
s off
f 34//19 36//19 35//19 33//19
f 36//20 40//20 39//20 35//20
f 40//21 38//21 37//21 39//21
f 38//22 34//22 33//22 37//22
f 33//23 35//23 39//23 37//23
f 38//24 40//24 36//24 34//24
o Cube.011
v -0.068580 -1.242905 0.301408
v 0.020593 -1.055038 0.301408
v -0.068580 -1.242905 0.105707
v 0.020593 -1.055038 0.105707
v 0.284575 -1.410534 0.301408
v 0.373748 -1.222667 0.301408
v 0.284575 -1.410534 0.105707
v 0.373748 -1.222667 0.105707
vn -0.903400 0.428800 0.000000
vn 0.000000 0.000000 -1.000000
vn 0.903400 -0.428800 0.000000
vn -0.000000 0.000000 1.000000
vn -0.428800 -0.903400 0.000000
vn 0.428800 0.903400 0.000000
usemtl Material.002
s off
f 42//25 44//25 43//25 41//25
f 44//26 48//26 47//26 43//26
f 48//27 46//27 45//27 47//27
f 46//28 42//28 41//28 45//28
f 41//29 43//29 47//29 45//29
f 46//30 48//30 44//30 42//30
o Cube.008
v 0.365313 -1.424981 -0.015960
v -0.118374 -0.394746 -0.015960
v 0.365313 -1.424981 -0.211660
v -0.118374 -0.394746 -0.211660
v 0.738011 -1.250002 -0.015960
v 0.254324 -0.219767 -0.015960
v 0.738011 -1.250002 -0.211660
v 0.254324 -0.219767 -0.211660
vn -0.905200 -0.425000 0.000000
vn -0.000000 0.000000 -1.000000
vn 0.905200 0.425000 0.000000
vn 0.000000 0.000000 1.000000
vn 0.425000 -0.905200 0.000000
vn -0.425000 0.905200 0.000000
usemtl Material.002
s off
f 50//31 52//31 51//31 49//31
f 52//32 56//32 55//32 51//32
f 56//33 54//33 53//33 55//33
f 54//34 50//34 49//34 53//34
f 49//35 51//35 55//35 53//35
f 54//36 56//36 52//36 50//36
o Cube.009
v 0.743468 -1.247440 -0.026205
v 0.655090 -1.059197 -0.026205
v 0.743468 -1.247440 -0.221905
v 0.655090 -1.059197 -0.221905
v 1.097329 -1.081305 -0.026205
v 1.008951 -0.893062 -0.026205
v 1.097329 -1.081305 -0.221905
v 1.008951 -0.893062 -0.221905
vn -0.905200 -0.425000 0.000000
vn -0.000000 0.000000 -1.000000
vn 0.905200 0.425000 0.000000
vn 0.000000 0.000000 1.000000
vn 0.425000 -0.905200 0.000000
vn -0.425000 0.905200 0.000000
usemtl Material.002
s off
f 58//37 60//37 59//37 57//37
f 60//38 64//38 63//38 59//38
f 64//39 62//39 61//39 63//39
f 62//40 58//40 57//40 61//40
f 57//41 59//41 63//41 61//41
f 62//42 64//42 60//42 58//42
o Icosphere.001
v 0.128632 0.967668 0.072594
v 0.323850 1.076310 0.201580
v 0.081060 1.111645 0.281300
v -0.068995 1.133484 0.072594
v 0.081060 1.111645 -0.136113
v 0.323850 1.076310 -0.056393
v 0.246874 1.309275 0.281300
v 0.004083 1.344609 0.201580
v 0.004083 1.344609 -0.056393
v 0.246874 1.309275 -0.136113
v 0.396929 1.287436 0.072594
v 0.199302 1.453252 0.072594
v 0.094466 1.009668 0.195267
v 0.237174 0.988899 0.148410
v 0.209212 1.073527 0.271085
v 0.351920 1.052758 0.072594
v 0.237174 0.988899 -0.003222
v 0.006266 1.022505 0.072594
v -0.021697 1.107132 0.195268
v 0.094466 1.009668 -0.050080
v -0.021697 1.107132 -0.050080
v 0.209212 1.073527 -0.125897
v 0.394876 1.176854 0.148410
v 0.394876 1.176854 -0.003222
v 0.163967 1.210460 0.317943
v 0.306676 1.189690 0.271086
v -0.066942 1.244065 0.148410
v 0.021257 1.231229 0.271086
v 0.021257 1.231229 -0.125898
v -0.066942 1.244065 -0.003222
v 0.306676 1.189690 -0.125898
v 0.163967 1.210460 -0.172756
v 0.349630 1.313787 0.195268
v 0.118721 1.347393 0.271085
v -0.023987 1.368162 0.072594
v 0.118721 1.347393 -0.125897
v 0.349630 1.313787 -0.050080
v 0.233467 1.411251 0.195267
v 0.321667 1.398414 0.072594
v 0.090760 1.432020 0.148410
v 0.090760 1.432020 -0.003222
v 0.233467 1.411251 -0.050080
vn -0.144000 -0.989600 0.000000
vn 0.298400 -0.903000 0.309000
vn -0.283200 -0.818400 0.500000
vn 0.651600 -0.546700 0.525700
vn 0.766000 -0.642800 0.000000
vn -0.642800 -0.766000 0.000000
vn -0.283200 -0.818400 -0.500000
vn 0.298400 -0.903000 -0.309000
vn 0.941100 -0.137000 0.309000
vn -0.337900 -0.402700 0.850600
vn 0.184400 -0.558100 0.809000
vn 0.000000 0.000000 1.000000
vn -0.949500 -0.313700 0.000000
vn -0.756700 -0.421100 0.500000
vn -0.941100 0.137000 0.309000
vn -0.337900 -0.402700 -0.850600
vn -0.756700 -0.421100 -0.500000
vn -0.581700 0.084600 -0.809000
vn 0.651600 -0.546700 -0.525700
vn 0.184400 -0.558100 -0.809000
vn 0.581700 -0.084600 -0.809000
vn 0.581700 -0.084600 0.809000
vn -0.581700 0.084600 0.809000
vn -0.941100 0.137000 -0.309000
vn 0.000000 0.000000 -1.000000
vn 0.941100 -0.137000 -0.309000
vn 0.337900 0.402700 0.850600
vn 0.756700 0.421100 0.500000
vn 0.283200 0.818400 0.500000
vn -0.651600 0.546700 0.525700
vn -0.184400 0.558100 0.809000
vn -0.298400 0.903000 0.309000
vn -0.651600 0.546700 -0.525700
vn -0.766000 0.642800 0.000000
vn -0.298400 0.903000 -0.309000
vn 0.337900 0.402700 -0.850600
vn -0.184400 0.558100 -0.809000
vn 0.283200 0.818400 -0.500000
vn 0.949500 0.313700 0.000000
vn 0.756700 0.421100 -0.500000
vn 0.642800 0.766000 0.000000
vn 0.144000 0.989600 0.000000
usemtl Material.002
s 1
f 65//43 78//44 77//45
f 66//46 78//44 80//47
f 65//43 77//45 82//48
f 65//43 82//48 84//49
f 65//43 84//49 81//50
f 66//46 80//47 87//51
f 67//52 79//53 89//54
f 68//55 83//56 91//57
f 69//58 85//59 93//60
f 70//61 86//62 95//63
f 66//46 87//51 90//64
f 67//52 89//54 92//65
f 68//55 91//57 94//66
f 69//58 93//60 96//67
f 70//61 95//63 88//68
f 71//69 97//70 102//71
f 72//72 98//73 104//74
f 73//75 99//76 105//77
f 74//78 100//79 106//80
f 75//81 101//82 103//83
f 103//83 106//80 76//84
f 103//83 101//82 106//80
f 101//82 74//78 106//80
f 106//80 105//77 76//84
f 106//80 100//79 105//77
f 100//79 73//75 105//77
f 105//77 104//74 76//84
f 105//77 99//76 104//74
f 99//76 72//72 104//74
f 104//74 102//71 76//84
f 104//74 98//73 102//71
f 98//73 71//69 102//71
f 102//71 103//83 76//84
f 102//71 97//70 103//83
f 97//70 75//81 103//83
f 88//68 101//82 75//81
f 88//68 95//63 101//82
f 95//63 74//78 101//82
f 96//67 100//79 74//78
f 96//67 93//60 100//79
f 93//60 73//75 100//79
f 94//66 99//76 73//75
f 94//66 91//57 99//76
f 91//57 72//72 99//76
f 92//65 98//73 72//72
f 92//65 89//54 98//73
f 89//54 71//69 98//73
f 90//64 97//70 71//69
f 90//64 87//51 97//70
f 87//51 75//81 97//70
f 95//63 96//67 74//78
f 95//63 86//62 96//67
f 86//62 69//58 96//67
f 93//60 94//66 73//75
f 93//60 85//59 94//66
f 85//59 68//55 94//66
f 91//57 92//65 72//72
f 91//57 83//56 92//65
f 83//56 67//52 92//65
f 89//54 90//64 71//69
f 89//54 79//53 90//64
f 79//53 66//46 90//64
f 87//51 88//68 75//81
f 87//51 80//47 88//68
f 80//47 70//61 88//68
f 81//50 86//62 70//61
f 81//50 84//49 86//62
f 84//49 69//58 86//62
f 84//49 85//59 69//58
f 84//49 82//48 85//59
f 82//48 68//55 85//59
f 82//48 83//56 68//55
f 82//48 77//45 83//56
f 77//45 67//52 83//56
f 80//47 81//50 70//61
f 80//47 78//44 81//50
f 78//44 65//43 81//50
f 77//45 79//53 67//52
f 77//45 78//44 79//53
f 78//44 66//46 79//53
