# Blender v2.76 (sub 0) OBJ File: 'stade.blend'
# www.blender.org
mtllib player_000051.mtl
o Cube
v -0.078813 -0.137506 0.301408
v -0.078813 1.000622 0.301408
v -0.078813 -0.137506 -0.155508
v -0.078813 1.000622 -0.155508
v 0.332917 -0.137506 0.301408
v 0.332917 1.000622 0.301408
v 0.332917 -0.137506 -0.155508
v 0.332917 1.000622 -0.155508
v -0.078813 1.000622 -0.021790
v -0.078813 -0.137506 -0.021790
v 0.332917 1.000622 -0.021790
v 0.332917 -0.137506 -0.021790
v -0.078813 -0.137506 0.050815
v 0.332917 1.000622 0.050815
v -0.078813 1.000622 0.050815
v 0.332917 -0.137506 0.050815
vn -1.000000 0.000000 0.000000
vn 0.000000 0.000000 -1.000000
vn 1.000000 0.000000 0.000000
vn 0.000000 0.000000 1.000000
vn 0.000000 -1.000000 0.000000
vn 0.000000 1.000000 0.000000
usemtl Material
s off
f 9//1 4//1 3//1 10//1
f 4//2 8//2 7//2 3//2
f 14//3 6//3 5//3 16//3
f 6//4 2//4 1//4 5//4
f 10//5 3//5 7//5 12//5
f 11//6 8//6 4//6 9//6
f 13//5 10//5 12//5 16//5
f 8//3 11//3 12//3 7//3
f 2//1 15//1 13//1 1//1
f 1//5 13//5 16//5 5//5
f 6//6 14//6 15//6 2//6
usemtl Material.003
f 14//6 11//6 9//6 15//6
f 15//1 9//1 10//1 13//1
f 11//3 14//3 16//3 12//3
o Icosphere
v 0.126019 0.968063 0.072594
v 0.322396 1.074595 0.201580
v 0.080000 1.112543 0.281300
v -0.069811 1.135998 0.072594
v 0.080000 1.112543 -0.136113
v 0.322396 1.074595 -0.056393
v 0.247934 1.308376 0.281300
v 0.005538 1.346324 0.201580
v 0.005538 1.346324 -0.056393
v 0.247934 1.308376 -0.136113
v 0.397744 1.284922 0.072594
v 0.201915 1.452857 0.072594
v 0.092307 1.010428 0.195267
v 0.234783 0.988123 0.148410
v 0.207735 1.073047 0.271085
v 0.350211 1.050742 0.072594
v 0.234783 0.988123 -0.003222
v 0.004251 1.024215 0.072594
v -0.022799 1.109138 0.195268
v 0.092307 1.010428 -0.050080
v -0.022799 1.109138 -0.050080
v 0.207735 1.073047 -0.125897
v 0.394501 1.174369 0.148410
v 0.394501 1.174369 -0.003222
v 0.163967 1.210460 0.317943
v 0.306444 1.188154 0.271086
v -0.066567 1.246551 0.148410
v 0.021489 1.232765 0.271086
v 0.021489 1.232765 -0.125898
v -0.066567 1.246551 -0.003222
v 0.306444 1.188154 -0.125898
v 0.163967 1.210460 -0.172756
v 0.350733 1.311781 0.195268
v 0.120199 1.347872 0.271085
v -0.022277 1.370177 0.072594
v 0.120199 1.347872 -0.125897
v 0.350733 1.311781 -0.050080
v 0.235626 1.410491 0.195267
v 0.323683 1.396705 0.072594
v 0.093151 1.432796 0.148410
v 0.093151 1.432796 -0.003222
v 0.235626 1.410491 -0.050080
vn -0.154700 -0.987900 0.000000
vn 0.288600 -0.906200 0.309000
vn -0.292100 -0.815300 0.500000
vn 0.645700 -0.553700 0.525700
vn 0.759100 -0.651000 0.000000
vn -0.651000 -0.759100 0.000000
vn -0.292100 -0.815300 -0.500000
vn 0.288600 -0.906200 -0.309000
vn 0.939600 -0.147100 0.309000
vn -0.342200 -0.399100 0.850600
vn 0.178400 -0.560000 0.809000
vn 0.000000 0.000000 1.000000
vn -0.952800 -0.303500 0.000000
vn -0.761200 -0.412900 0.500000
vn -0.939600 0.147100 0.309000
vn -0.342200 -0.399100 -0.850600
vn -0.761200 -0.412900 -0.500000
vn -0.580700 0.090900 -0.809000
vn 0.645700 -0.553700 -0.525700
vn 0.178400 -0.560000 -0.809000
vn 0.580700 -0.090900 -0.809000
vn 0.580700 -0.090900 0.809000
vn -0.580700 0.090900 0.809000
vn -0.939600 0.147100 -0.309000
vn 0.000000 0.000000 -1.000000
vn 0.939600 -0.147100 -0.309000
vn 0.342200 0.399100 0.850600
vn 0.761200 0.412900 0.500000
vn 0.292100 0.815300 0.500000
vn -0.645700 0.553700 0.525700
vn -0.178400 0.560000 0.809000
vn -0.288600 0.906200 0.309000
vn -0.645700 0.553700 -0.525700
vn -0.759100 0.651000 0.000000
vn -0.288600 0.906200 -0.309000
vn 0.342200 0.399100 -0.850600
vn -0.178400 0.560000 -0.809000
vn 0.292100 0.815300 -0.500000
vn 0.952800 0.303500 0.000000
vn 0.761200 0.412900 -0.500000
vn 0.651000 0.759100 0.000000
vn 0.154700 0.987900 0.000000
usemtl Material.002
s 1
f 17//7 30//8 29//9
f 18//10 30//8 32//11
f 17//7 29//9 34//12
f 17//7 34//12 36//13
f 17//7 36//13 33//14
f 18//10 32//11 39//15
f 19//16 31//17 41//18
f 20//19 35//20 43//21
f 21//22 37//23 45//24
f 22//25 38//26 47//27
f 18//10 39//15 42//28
f 19//16 41//18 44//29
f 20//19 43//21 46//30
f 21//22 45//24 48//31
f 22//25 47//27 40//32
f 23//33 49//34 54//35
f 24//36 50//37 56//38
f 25//39 51//40 57//41
f 26//42 52//43 58//44
f 27//45 53//46 55//47
f 55//47 58//44 28//48
f 55//47 53//46 58//44
f 53//46 26//42 58//44
f 58//44 57//41 28//48
f 58//44 52//43 57//41
f 52//43 25//39 57//41
f 57//41 56//38 28//48
f 57//41 51//40 56//38
f 51//40 24//36 56//38
f 56//38 54//35 28//48
f 56//38 50//37 54//35
f 50//37 23//33 54//35
f 54//35 55//47 28//48
f 54//35 49//34 55//47
f 49//34 27//45 55//47
f 40//32 53//46 27//45
f 40//32 47//27 53//46
f 47//27 26//42 53//46
f 48//31 52//43 26//42
f 48//31 45//24 52//43
f 45//24 25//39 52//43
f 46//30 51//40 25//39
f 46//30 43//21 51//40
f 43//21 24//36 51//40
f 44//29 50//37 24//36
f 44//29 41//18 50//37
f 41//18 23//33 50//37
f 42//28 49//34 23//33
f 42//28 39//15 49//34
f 39//15 27//45 49//34
f 47//27 48//31 26//42
f 47//27 38//26 48//31
f 38//26 21//22 48//31
f 45//24 46//30 25//39
f 45//24 37//23 46//30
f 37//23 20//19 46//30
f 43//21 44//29 24//36
f 43//21 35//20 44//29
f 35//20 19//16 44//29
f 41//18 42//28 23//33
f 41//18 31//17 42//28
f 31//17 18//10 42//28
f 39//15 40//32 27//45
f 39//15 32//11 40//32
f 32//11 22//25 40//32
f 33//14 38//26 22//25
f 33//14 36//13 38//26
f 36//13 21//22 38//26
f 36//13 37//23 21//22
f 36//13 34//12 37//23
f 34//12 20//19 37//23
f 34//12 35//20 20//19
f 34//12 29//9 35//20
f 29//9 19//16 35//20
f 32//11 33//14 22//25
f 32//11 30//8 33//14
f 30//8 17//7 33//14
f 29//9 31//17 19//16
f 29//9 30//8 31//17
f 30//8 18//10 31//17
o Cube.002
v 0.275892 -1.423118 -0.015960
v -0.117501 -0.355139 -0.015960
v 0.275892 -1.423118 -0.211660
v -0.117501 -0.355139 -0.211660
v 0.662244 -1.280804 -0.015960
v 0.268851 -0.212825 -0.015960
v 0.662244 -1.280804 -0.211660
v 0.268851 -0.212825 -0.211660
vn -0.938400 -0.345600 0.000000
vn 0.000000 0.000000 -1.000000
vn 0.938400 0.345600 0.000000
vn -0.000000 0.000000 1.000000
vn 0.345600 -0.938400 0.000000
vn -0.345600 0.938400 0.000000
usemtl Material.002
s off
f 60//49 62//49 61//49 59//49
f 62//50 66//50 65//50 61//50
f 66//51 64//51 63//51 65//51
f 64//52 60//52 59//52 63//52
f 59//53 61//53 65//53 63//53
f 64//54 66//54 62//54 60//54
o Cube.004
v 0.667901 -1.278720 -0.026205
v 0.596021 -1.083581 -0.026205
v 0.667901 -1.278720 -0.221905
v 0.596021 -1.083581 -0.221905
v 1.034726 -1.143599 -0.026205
v 0.962846 -0.948460 -0.026205
v 1.034726 -1.143599 -0.221905
v 0.962846 -0.948460 -0.221905
vn -0.938400 -0.345600 0.000000
vn 0.000000 0.000000 -1.000000
vn 0.938400 0.345600 0.000000
vn 0.000000 0.000000 1.000000
vn 0.345600 -0.938400 0.000000
vn -0.345600 0.938400 0.000000
usemtl Material.002
s off
f 68//55 70//55 69//55 67//55
f 70//56 74//56 73//56 69//56
f 74//57 72//57 71//57 73//57
f 72//58 68//58 67//58 71//58
f 67//59 69//59 73//59 71//59
f 72//60 74//60 70//60 68//60
o Cube.001
v -0.373934 -1.139405 0.301408
v 0.008514 -0.067458 0.301408
v -0.373934 -1.139405 0.105707
v 0.008514 -0.067458 0.105707
v 0.013854 -1.277760 0.301408
v 0.396302 -0.205813 0.301408
v 0.013854 -1.277760 0.105707
v 0.396302 -0.205813 0.105707
vn -0.941900 0.336000 0.000000
vn -0.000000 0.000000 -1.000000
vn 0.941900 -0.336000 0.000000
vn 0.000000 0.000000 1.000000
vn -0.336000 -0.941900 0.000000
vn 0.336000 0.941900 0.000000
usemtl Material.002
s off
f 76//61 78//61 77//61 75//61
f 78//62 82//62 81//62 77//62
f 82//63 80//63 79//63 81//63
f 80//64 76//64 75//64 79//64
f 75//65 77//65 81//65 79//65
f 80//66 82//66 78//66 76//66
o Cube.003
v 0.019532 -1.279785 0.301408
v 0.089412 -1.083921 0.301408
v 0.019532 -1.279785 0.105707
v 0.089412 -1.083921 0.105707
v 0.387720 -1.411147 0.301408
v 0.457600 -1.215283 0.301408
v 0.387720 -1.411147 0.105707
v 0.457600 -1.215283 0.105707
vn -0.941900 0.336000 0.000000
vn 0.000000 0.000000 -1.000000
vn 0.941900 -0.336000 0.000000
vn 0.000000 0.000000 1.000000
vn -0.336000 -0.941900 0.000000
vn 0.336000 0.941900 0.000000
usemtl Material.002
s off
f 84//67 86//67 85//67 83//67
f 86//68 90//68 89//68 85//68
f 90//69 88//69 87//69 89//69
f 88//70 84//70 83//70 87//70
f 83//71 85//71 89//71 87//71
f 88//72 90//72 86//72 84//72
o Cube.006
v -0.154969 -0.142908 -0.195219
v -0.104613 0.994107 -0.195219
v -0.154969 -0.142908 -0.390919
v -0.104613 0.994107 -0.390919
v 0.256357 -0.161124 -0.195219
v 0.306714 0.975890 -0.195219
v 0.256357 -0.161124 -0.390919
v 0.306714 0.975890 -0.390919
vn -0.999000 0.044200 0.000000
vn 0.000000 0.000000 -1.000000
vn 0.999000 -0.044200 0.000000
vn -0.000000 0.000000 1.000000
vn -0.044200 -0.999000 0.000000
vn 0.044200 0.999000 0.000000
usemtl Material.002
s off
f 92//73 94//73 93//73 91//73
f 94//74 98//74 97//74 93//74
f 98//75 96//75 95//75 97//75
f 96//76 92//76 91//76 95//76
f 91//77 93//77 97//77 95//77
f 96//78 98//78 94//78 92//78
o Cube.005
v 0.269583 -0.250802 0.522824
v -0.152631 0.806114 0.522824
v 0.269583 -0.250802 0.327124
v -0.152631 0.806114 0.327124
v 0.651933 -0.098062 0.522824
v 0.229719 0.958854 0.522824
v 0.651933 -0.098062 0.327124
v 0.229719 0.958854 0.327124
vn -0.928600 -0.371000 0.000000
vn -0.000000 0.000000 -1.000000
vn 0.928600 0.371000 0.000000
vn 0.000000 0.000000 1.000000
vn 0.371000 -0.928600 0.000000
vn -0.371000 0.928600 0.000000
usemtl Material.002
s off
f 100//79 102//79 101//79 99//79
f 102//80 106//80 105//80 101//80
f 106//81 104//81 103//81 105//81
f 104//82 100//82 99//82 103//82
f 99//83 101//83 105//83 103//83
f 104//84 106//84 102//84 100//84
