# Blender v2.76 (sub 0) OBJ File: 'stade.blend'
# www.blender.org
mtllib player_000056.mtl
o Cube
v -0.078813 -0.137506 0.301408
v -0.078813 1.000622 0.301408
v -0.078813 -0.137506 -0.155508
v -0.078813 1.000622 -0.155508
v 0.332917 -0.137506 0.301408
v 0.332917 1.000622 0.301408
v 0.332917 -0.137506 -0.155508
v 0.332917 1.000622 -0.155508
v -0.078813 1.000622 -0.021790
v -0.078813 -0.137506 -0.021790
v 0.332917 1.000622 -0.021790
v 0.332917 -0.137506 -0.021790
v -0.078813 -0.137506 0.050815
v 0.332917 1.000622 0.050815
v -0.078813 1.000622 0.050815
v 0.332917 -0.137506 0.050815
vn -1.000000 0.000000 0.000000
vn 0.000000 0.000000 -1.000000
vn 1.000000 0.000000 0.000000
vn 0.000000 0.000000 1.000000
vn 0.000000 -1.000000 0.000000
vn 0.000000 1.000000 0.000000
usemtl Material
s off
f 9//1 4//1 3//1 10//1
f 4//2 8//2 7//2 3//2
f 14//3 6//3 5//3 16//3
f 6//4 2//4 1//4 5//4
f 10//5 3//5 7//5 12//5
f 11//6 8//6 4//6 9//6
f 13//5 10//5 12//5 16//5
f 8//3 11//3 12//3 7//3
f 2//1 15//1 13//1 1//1
f 1//5 13//5 16//5 5//5
f 6//6 14//6 15//6 2//6
usemtl Material.003
f 14//6 11//6 9//6 15//6
f 15//1 9//1 10//1 13//1
f 11//3 14//3 16//3 12//3
o Icosphere
v 0.128632 0.967668 0.072594
v 0.323850 1.076310 0.201580
v 0.081060 1.111645 0.281300
v -0.068995 1.133484 0.072594
v 0.081060 1.111645 -0.136113
v 0.323850 1.076310 -0.056393
v 0.246874 1.309275 0.281300
v 0.004083 1.344609 0.201580
v 0.004083 1.344609 -0.056393
v 0.246874 1.309275 -0.136113
v 0.396929 1.287436 0.072594
v 0.199302 1.453252 0.072594
v 0.094466 1.009668 0.195267
v 0.237174 0.988899 0.148410
v 0.209212 1.073527 0.271085
v 0.351920 1.052758 0.072594
v 0.237174 0.988899 -0.003222
v 0.006266 1.022505 0.072594
v -0.021697 1.107132 0.195268
v 0.094466 1.009668 -0.050080
v -0.021697 1.107132 -0.050080
v 0.209212 1.073527 -0.125897
v 0.394876 1.176854 0.148410
v 0.394876 1.176854 -0.003222
v 0.163967 1.210460 0.317943
v 0.306676 1.189690 0.271086
v -0.066942 1.244065 0.148410
v 0.021257 1.231229 0.271086
v 0.021257 1.231229 -0.125898
v -0.066942 1.244065 -0.003222
v 0.306676 1.189690 -0.125898
v 0.163967 1.210460 -0.172756
v 0.349630 1.313787 0.195268
v 0.118721 1.347393 0.271085
v -0.023987 1.368162 0.072594
v 0.118721 1.347393 -0.125897
v 0.349630 1.313787 -0.050080
v 0.233467 1.411251 0.195267
v 0.321667 1.398414 0.072594
v 0.090760 1.432020 0.148410
v 0.090760 1.432020 -0.003222
v 0.233467 1.411251 -0.050080
vn -0.144000 -0.989600 0.000000
vn 0.298400 -0.903000 0.309000
vn -0.283200 -0.818400 0.500000
vn 0.651600 -0.546700 0.525700
vn 0.766000 -0.642800 0.000000
vn -0.642800 -0.766000 0.000000
vn -0.283200 -0.818400 -0.500000
vn 0.298400 -0.903000 -0.309000
vn 0.941100 -0.137000 0.309000
vn -0.337900 -0.402700 0.850600
vn 0.184400 -0.558100 0.809000
vn 0.000000 0.000000 1.000000
vn -0.949500 -0.313700 0.000000
vn -0.756700 -0.421100 0.500000
vn -0.941100 0.137000 0.309000
vn -0.337900 -0.402700 -0.850600
vn -0.756700 -0.421100 -0.500000
vn -0.581700 0.084600 -0.809000
vn 0.651600 -0.546700 -0.525700
vn 0.184400 -0.558100 -0.809000
vn 0.581700 -0.084600 -0.809000
vn 0.581700 -0.084600 0.809000
vn -0.581700 0.084600 0.809000
vn -0.941100 0.137000 -0.309000
vn 0.000000 0.000000 -1.000000
vn 0.941100 -0.137000 -0.309000
vn 0.337900 0.402700 0.850600
vn 0.756700 0.421100 0.500000
vn 0.283200 0.818400 0.500000
vn -0.651600 0.546700 0.525700
vn -0.184400 0.558100 0.809000
vn -0.298400 0.903000 0.309000
vn -0.651600 0.546700 -0.525700
vn -0.766000 0.642800 0.000000
vn -0.298400 0.903000 -0.309000
vn 0.337900 0.402700 -0.850600
vn -0.184400 0.558100 -0.809000
vn 0.283200 0.818400 -0.500000
vn 0.949500 0.313700 0.000000
vn 0.756700 0.421100 -0.500000
vn 0.642800 0.766000 0.000000
vn 0.144000 0.989600 0.000000
usemtl Material.002
s 1
f 17//7 30//8 29//9
f 18//10 30//8 32//11
f 17//7 29//9 34//12
f 17//7 34//12 36//13
f 17//7 36//13 33//14
f 18//10 32//11 39//15
f 19//16 31//17 41//18
f 20//19 35//20 43//21
f 21//22 37//23 45//24
f 22//25 38//26 47//27
f 18//10 39//15 42//28
f 19//16 41//18 44//29
f 20//19 43//21 46//30
f 21//22 45//24 48//31
f 22//25 47//27 40//32
f 23//33 49//34 54//35
f 24//36 50//37 56//38
f 25//39 51//40 57//41
f 26//42 52//43 58//44
f 27//45 53//46 55//47
f 55//47 58//44 28//48
f 55//47 53//46 58//44
f 53//46 26//42 58//44
f 58//44 57//41 28//48
f 58//44 52//43 57//41
f 52//43 25//39 57//41
f 57//41 56//38 28//48
f 57//41 51//40 56//38
f 51//40 24//36 56//38
f 56//38 54//35 28//48
f 56//38 50//37 54//35
f 50//37 23//33 54//35
f 54//35 55//47 28//48
f 54//35 49//34 55//47
f 49//34 27//45 55//47
f 40//32 53//46 27//45
f 40//32 47//27 53//46
f 47//27 26//42 53//46
f 48//31 52//43 26//42
f 48//31 45//24 52//43
f 45//24 25//39 52//43
f 46//30 51//40 25//39
f 46//30 43//21 51//40
f 43//21 24//36 51//40
f 44//29 50//37 24//36
f 44//29 41//18 50//37
f 41//18 23//33 50//37
f 42//28 49//34 23//33
f 42//28 39//15 49//34
f 39//15 27//45 49//34
f 47//27 48//31 26//42
f 47//27 38//26 48//31
f 38//26 21//22 48//31
f 45//24 46//30 25//39
f 45//24 37//23 46//30
f 37//23 20//19 46//30
f 43//21 44//29 24//36
f 43//21 35//20 44//29
f 35//20 19//16 44//29
f 41//18 42//28 23//33
f 41//18 31//17 42//28
f 31//17 18//10 42//28
f 39//15 40//32 27//45
f 39//15 32//11 40//32
f 32//11 22//25 40//32
f 33//14 38//26 22//25
f 33//14 36//13 38//26
f 36//13 21//22 38//26
f 36//13 37//23 21//22
f 36//13 34//12 37//23
f 34//12 20//19 37//23
f 34//12 35//20 20//19
f 34//12 29//9 35//20
f 29//9 19//16 35//20
f 32//11 33//14 22//25
f 32//11 30//8 33//14
f 30//8 17//7 33//14
f 29//9 31//17 19//16
f 29//9 30//8 31//17
f 30//8 18//10 31//17
o Cube.002
v 0.365313 -1.424981 -0.015960
v -0.118374 -0.394746 -0.015960
v 0.365313 -1.424981 -0.211660
v -0.118374 -0.394746 -0.211660
v 0.738011 -1.250002 -0.015960
v 0.254324 -0.219767 -0.015960
v 0.738011 -1.250002 -0.211660
v 0.254324 -0.219767 -0.211660
vn -0.905200 -0.425000 0.000000
vn -0.000000 0.000000 -1.000000
vn 0.905200 0.425000 0.000000
vn 0.000000 0.000000 1.000000
vn 0.425000 -0.905200 0.000000
vn -0.425000 0.905200 0.000000
usemtl Material.002
s off
f 60//49 62//49 61//49 59//49
f 62//50 66//50 65//50 61//50
f 66//51 64//51 63//51 65//51
f 64//52 60//52 59//52 63//52
f 59//53 61//53 65//53 63//53
f 64//54 66//54 62//54 60//54
o Cube.004
v 0.743468 -1.247440 -0.026205
v 0.655090 -1.059197 -0.026205
v 0.743468 -1.247440 -0.221905
v 0.655090 -1.059197 -0.221905
v 1.097329 -1.081305 -0.026205
v 1.008951 -0.893062 -0.026205
v 1.097329 -1.081305 -0.221905
v 1.008951 -0.893062 -0.221905
vn -0.905200 -0.425000 0.000000
vn -0.000000 0.000000 -1.000000
vn 0.905200 0.425000 0.000000
vn 0.000000 0.000000 1.000000
vn 0.425000 -0.905200 0.000000
vn -0.425000 0.905200 0.000000
usemtl Material.002
s off
f 68//55 70//55 69//55 67//55
f 70//56 74//56 73//56 69//56
f 74//57 72//57 71//57 73//57
f 72//58 68//58 67//58 71//58
f 67//59 69//59 73//59 71//59
f 72//60 74//60 70//60 68//60
o Cube.001
v -0.445981 -1.063767 0.301408
v 0.042056 -0.035586 0.301408
v -0.445981 -1.063767 0.105707
v 0.042056 -0.035586 0.105707
v -0.074026 -1.240319 0.301408
v 0.414011 -0.212139 0.301408
v -0.074026 -1.240319 0.105707
v 0.414011 -0.212139 0.105707
vn -0.903400 0.428800 0.000000
vn 0.000000 0.000000 -1.000000
vn 0.903400 -0.428800 0.000000
vn -0.000000 0.000000 1.000000
vn -0.428800 -0.903400 0.000000
vn 0.428800 0.903400 0.000000
usemtl Material.002
s off
f 76//61 78//61 77//61 75//61
f 78//62 82//62 81//62 77//62
f 82//63 80//63 79//63 81//63
f 80//64 76//64 75//64 79//64
f 75//65 77//65 81//65 79//65
f 80//66 82//66 78//66 76//66
o Cube.003
v -0.068580 -1.242905 0.301408
v 0.020593 -1.055038 0.301408
v -0.068580 -1.242905 0.105707
v 0.020593 -1.055038 0.105707
v 0.284575 -1.410534 0.301408
v 0.373748 -1.222667 0.301408
v 0.284575 -1.410534 0.105707
v 0.373748 -1.222667 0.105707
vn -0.903400 0.428800 0.000000
vn 0.000000 0.000000 -1.000000
vn 0.903400 -0.428800 0.000000
vn -0.000000 0.000000 1.000000
vn -0.428800 -0.903400 0.000000
vn 0.428800 0.903400 0.000000
usemtl Material.002
s off
f 84//67 86//67 85//67 83//67
f 86//68 90//68 89//68 85//68
f 90//69 88//69 87//69 89//69
f 88//70 84//70 83//70 87//70
f 83//71 85//71 89//71 87//71
f 88//72 90//72 86//72 84//72
o Cube.006
v -0.221840 -0.106582 -0.195219
v -0.088487 1.023707 -0.195219
v -0.221840 -0.106582 -0.390919
v -0.088487 1.023707 -0.390919
v 0.187054 -0.154824 -0.195219
v 0.320407 0.975465 -0.195219
v 0.187054 -0.154824 -0.390919
v 0.320407 0.975465 -0.390919
vn -0.993100 0.117200 0.000000
vn 0.000000 0.000000 -1.000000
vn 0.993100 -0.117200 0.000000
vn 0.000000 0.000000 1.000000
vn -0.117200 -0.993100 0.000000
vn 0.117200 0.993100 0.000000
usemtl Material.002
s off
f 92//73 94//73 93//73 91//73
f 94//74 98//74 97//74 93//74
f 98//75 96//75 95//75 97//75
f 96//76 92//76 91//76 95//76
f 91//77 93//77 97//77 95//77
f 96//78 98//78 94//78 92//78
o Cube.005
v 0.340280 -0.250995 0.522824
v -0.152754 0.774799 0.522824
v 0.340280 -0.250995 0.327124
v -0.152754 0.774799 0.327124
v 0.711372 -0.072635 0.522824
v 0.218337 0.953160 0.522824
v 0.711372 -0.072635 0.327124
v 0.218337 0.953160 0.327124
vn -0.901300 -0.433200 0.000000
vn 0.000000 0.000000 -1.000000
vn 0.901300 0.433200 0.000000
vn -0.000000 0.000000 1.000000
vn 0.433200 -0.901300 0.000000
vn -0.433200 0.901300 0.000000
usemtl Material.002
s off
f 100//79 102//79 101//79 99//79
f 102//80 106//80 105//80 101//80
f 106//81 104//81 103//81 105//81
f 104//82 100//82 99//82 103//82
f 99//83 101//83 105//83 103//83
f 104//84 106//84 102//84 100//84
