# Blender v2.76 (sub 0) OBJ File: 'stade.blend'
# www.blender.org
mtllib player_000034.mtl
o Cube
v -0.078813 -0.137506 0.301408
v -0.078813 1.000622 0.301408
v -0.078813 -0.137506 -0.155508
v -0.078813 1.000622 -0.155508
v 0.332917 -0.137506 0.301408
v 0.332917 1.000622 0.301408
v 0.332917 -0.137506 -0.155508
v 0.332917 1.000622 -0.155508
v -0.078813 1.000622 -0.021790
v -0.078813 -0.137506 -0.021790
v 0.332917 1.000622 -0.021790
v 0.332917 -0.137506 -0.021790
v -0.078813 -0.137506 0.050815
v 0.332917 1.000622 0.050815
v -0.078813 1.000622 0.050815
v 0.332917 -0.137506 0.050815
vn -1.000000 0.000000 0.000000
vn 0.000000 0.000000 -1.000000
vn 1.000000 0.000000 0.000000
vn 0.000000 0.000000 1.000000
vn 0.000000 -1.000000 0.000000
vn 0.000000 1.000000 0.000000
usemtl Material
s off
f 9//1 4//1 3//1 10//1
f 4//2 8//2 7//2 3//2
f 14//3 6//3 5//3 16//3
f 6//4 2//4 1//4 5//4
f 10//5 3//5 7//5 12//5
f 11//6 8//6 4//6 9//6
f 13//5 10//5 12//5 16//5
f 8//3 11//3 12//3 7//3
f 2//1 15//1 13//1 1//1
f 1//5 13//5 16//5 5//5
f 6//6 14//6 15//6 2//6
usemtl Material.003
f 14//6 11//6 9//6 15//6
f 15//1 9//1 10//1 13//1
f 11//3 14//3 16//3 12//3
o Icosphere
v 0.108100 0.971555 0.072594
v 0.311855 1.063191 0.201580
v 0.072952 1.119058 0.281300
v -0.074700 1.153587 0.072594
v 0.072952 1.119058 -0.136113
v 0.311855 1.063191 -0.056393
v 0.254982 1.301862 0.281300
v 0.016079 1.357728 0.201580
v 0.016079 1.357728 -0.056393
v 0.254982 1.301862 -0.136113
v 0.402634 1.267333 0.072594
v 0.219834 1.449364 0.072594
v 0.077632 1.016310 0.195267
v 0.218055 0.983473 0.148410
v 0.197396 1.070173 0.271085
v 0.337819 1.037336 0.072594
v 0.218055 0.983473 -0.003222
v -0.009156 1.036606 0.072594
v -0.029816 1.123306 0.195268
v 0.077632 1.016310 -0.050080
v -0.029816 1.123306 -0.050080
v 0.197396 1.070173 -0.125897
v 0.391179 1.157327 0.148410
v 0.391179 1.157327 -0.003222
v 0.163967 1.210460 0.317943
v 0.304391 1.177622 0.271086
v -0.063245 1.263592 0.148410
v 0.023542 1.243297 0.271086
v 0.023542 1.243297 -0.125898
v -0.063245 1.263592 -0.003222
v 0.304391 1.177622 -0.125898
v 0.163967 1.210460 -0.172756
v 0.357750 1.297614 0.195268
v 0.130538 1.350746 0.271085
v -0.009885 1.383583 0.072594
v 0.130538 1.350746 -0.125897
v 0.357750 1.297614 -0.050080
v 0.250302 1.404609 0.195267
v 0.337089 1.384313 0.072594
v 0.109879 1.437446 0.148410
v 0.109879 1.437446 -0.003222
v 0.250302 1.404609 -0.050080
vn -0.227700 -0.973700 0.000000
vn 0.220400 -0.925100 0.309000
vn -0.351900 -0.791300 0.500000
vn 0.602700 -0.600200 0.525700
vn 0.708600 -0.705600 0.000000
vn -0.705600 -0.708600 0.000000
vn -0.351900 -0.791300 -0.500000
vn 0.220400 -0.925100 -0.309000
vn 0.926100 -0.216500 0.309000
vn -0.371000 -0.372500 0.850600
vn 0.136200 -0.571800 0.809000
vn 0.000000 0.000000 1.000000
vn -0.972700 -0.231800 0.000000
vn -0.789800 -0.355200 0.500000
vn -0.926100 0.216500 0.309000
vn -0.371000 -0.372500 -0.850600
vn -0.789800 -0.355200 -0.500000
vn -0.572300 0.133800 -0.809000
vn 0.602700 -0.600200 -0.525700
vn 0.136200 -0.571800 -0.809000
vn 0.572300 -0.133800 -0.809000
vn 0.572300 -0.133800 0.809000
vn -0.572300 0.133800 0.809000
vn -0.926100 0.216500 -0.309000
vn 0.000000 0.000000 -1.000000
vn 0.926100 -0.216500 -0.309000
vn 0.371000 0.372500 0.850600
vn 0.789800 0.355200 0.500000
vn 0.351900 0.791300 0.500000
vn -0.602700 0.600200 0.525700
vn -0.136200 0.571800 0.809000
vn -0.220400 0.925100 0.309000
vn -0.602700 0.600200 -0.525700
vn -0.708600 0.705600 0.000000
vn -0.220400 0.925100 -0.309000
vn 0.371000 0.372500 -0.850600
vn -0.136200 0.571800 -0.809000
vn 0.351900 0.791300 -0.500000
vn 0.972700 0.231800 0.000000
vn 0.789800 0.355200 -0.500000
vn 0.705600 0.708600 0.000000
vn 0.227700 0.973700 0.000000
usemtl Material.002
s 1
f 17//7 30//8 29//9
f 18//10 30//8 32//11
f 17//7 29//9 34//12
f 17//7 34//12 36//13
f 17//7 36//13 33//14
f 18//10 32//11 39//15
f 19//16 31//17 41//18
f 20//19 35//20 43//21
f 21//22 37//23 45//24
f 22//25 38//26 47//27
f 18//10 39//15 42//28
f 19//16 41//18 44//29
f 20//19 43//21 46//30
f 21//22 45//24 48//31
f 22//25 47//27 40//32
f 23//33 49//34 54//35
f 24//36 50//37 56//38
f 25//39 51//40 57//41
f 26//42 52//43 58//44
f 27//45 53//46 55//47
f 55//47 58//44 28//48
f 55//47 53//46 58//44
f 53//46 26//42 58//44
f 58//44 57//41 28//48
f 58//44 52//43 57//41
f 52//43 25//39 57//41
f 57//41 56//38 28//48
f 57//41 51//40 56//38
f 51//40 24//36 56//38
f 56//38 54//35 28//48
f 56//38 50//37 54//35
f 50//37 23//33 54//35
f 54//35 55//47 28//48
f 54//35 49//34 55//47
f 49//34 27//45 55//47
f 40//32 53//46 27//45
f 40//32 47//27 53//46
f 47//27 26//42 53//46
f 48//31 52//43 26//42
f 48//31 45//24 52//43
f 45//24 25//39 52//43
f 46//30 51//40 25//39
f 46//30 43//21 51//40
f 43//21 24//36 51//40
f 44//29 50//37 24//36
f 44//29 41//18 50//37
f 41//18 23//33 50//37
f 42//28 49//34 23//33
f 42//28 39//15 49//34
f 39//15 27//45 49//34
f 47//27 48//31 26//42
f 47//27 38//26 48//31
f 38//26 21//22 48//31
f 45//24 46//30 25//39
f 45//24 37//23 46//30
f 37//23 20//19 46//30
f 43//21 44//29 24//36
f 43//21 35//20 44//29
f 35//20 19//16 44//29
f 41//18 42//28 23//33
f 41//18 31//17 42//28
f 31//17 18//10 42//28
f 39//15 40//32 27//45
f 39//15 32//11 40//32
f 32//11 22//25 40//32
f 33//14 38//26 22//25
f 33//14 36//13 38//26
f 36//13 21//22 38//26
f 36//13 37//23 21//22
f 36//13 34//12 37//23
f 34//12 20//19 37//23
f 34//12 35//20 20//19
f 34//12 29//9 35//20
f 29//9 19//16 35//20
f 32//11 33//14 22//25
f 32//11 30//8 33//14
f 30//8 17//7 33//14
f 29//9 31//17 19//16
f 29//9 30//8 31//17
f 30//8 18//10 31//17
o Cube.002
v -0.293904 -1.208022 -0.015960
v -0.021922 -0.102869 -0.015960
v -0.293904 -1.208022 -0.211660
v -0.021922 -0.102869 -0.211660
v 0.105896 -1.306414 -0.015960
v 0.377879 -0.201262 -0.015960
v 0.105896 -1.306414 -0.211660
v 0.377879 -0.201262 -0.211660
vn -0.971000 0.239000 0.000000
vn -0.000000 0.000000 -1.000000
vn 0.971000 -0.239000 0.000000
vn 0.000000 0.000000 1.000000
vn -0.239000 -0.971000 0.000000
vn 0.239000 0.971000 0.000000
usemtl Material.002
s off
f 60//49 62//49 61//49 59//49
f 62//50 66//50 65//50 61//50
f 66//51 64//51 63//51 65//51
f 64//52 60//52 59//52 63//52
f 59//53 61//53 65//53 63//53
f 64//54 66//54 62//54 60//54
o Cube.004
v 0.111750 -1.307855 -0.026205
v 0.161446 -1.105924 -0.026205
v 0.111750 -1.307855 -0.221905
v 0.161446 -1.105924 -0.221905
v 0.491343 -1.401274 -0.026205
v 0.541039 -1.199343 -0.026205
v 0.491343 -1.401274 -0.221905
v 0.541039 -1.199343 -0.221905
vn -0.971000 0.239000 0.000000
vn 0.000000 0.000000 -1.000000
vn 0.971000 -0.239000 0.000000
vn 0.000000 0.000000 1.000000
vn -0.239000 -0.971000 0.000000
vn 0.239000 0.971000 0.000000
usemtl Material.002
s off
f 68//55 70//55 69//55 67//55
f 70//56 74//56 73//56 69//56
f 74//57 72//57 71//57 73//57
f 72//58 68//58 67//58 71//58
f 67//59 69//59 73//59 71//59
f 72//60 74//60 70//60 68//60
o Cube.001
v 0.274315 -1.423016 0.301408
v -0.117455 -0.354440 0.301408
v 0.274315 -1.423016 0.105707
v -0.117455 -0.354440 0.105707
v 0.660883 -1.281289 0.301408
v 0.269113 -0.212714 0.301408
v 0.660883 -1.281289 0.105707
v 0.269113 -0.212714 0.105707
vn -0.938900 -0.344200 0.000000
vn -0.000000 0.000000 -1.000000
vn 0.938900 0.344200 0.000000
vn 0.000000 0.000000 1.000000
vn 0.344200 -0.938900 0.000000
vn -0.344200 0.938900 0.000000
usemtl Material.002
s off
f 76//61 78//61 77//61 75//61
f 78//62 82//62 81//62 77//62
f 82//63 80//63 79//63 81//63
f 80//64 76//64 75//64 79//64
f 75//65 77//65 81//65 79//65
f 80//66 82//66 78//66 76//66
o Cube.003
v 0.666543 -1.279214 0.301408
v 0.594960 -1.083966 0.301408
v 0.666543 -1.279214 0.105707
v 0.594960 -1.083966 0.105707
v 1.033573 -1.144650 0.301408
v 0.961990 -0.949402 0.301408
v 1.033573 -1.144650 0.105707
v 0.961990 -0.949402 0.105707
vn -0.938900 -0.344200 0.000000
vn -0.000000 0.000000 -1.000000
vn 0.938900 0.344200 0.000000
vn 0.000000 0.000000 1.000000
vn 0.344200 -0.938900 0.000000
vn -0.344200 0.938900 0.000000
usemtl Material.002
s off
f 84//67 86//67 85//67 83//67
f 86//68 90//68 89//68 85//68
f 90//69 88//69 87//69 89//69
f 88//70 84//70 83//70 87//70
f 83//71 85//71 89//71 87//71
f 88//72 90//72 86//72 84//72
o Cube.006
v 0.354070 -0.250472 -0.195219
v -0.152530 0.768691 -0.195219
v 0.354070 -0.250472 -0.390919
v -0.152530 0.768691 -0.390919
v 0.722762 -0.067204 -0.195219
v 0.216163 0.951959 -0.195219
v 0.722762 -0.067204 -0.390919
v 0.216163 0.951959 -0.390919
vn -0.895500 -0.445100 0.000000
vn -0.000000 0.000000 -1.000000
vn 0.895500 0.445100 0.000000
vn 0.000000 0.000000 1.000000
vn 0.445100 -0.895500 0.000000
vn -0.445100 0.895500 0.000000
usemtl Material.002
s off
f 92//73 94//73 93//73 91//73
f 94//74 98//74 97//74 93//74
f 98//75 96//75 95//75 97//75
f 96//76 92//76 91//76 95//76
f 91//77 93//77 97//77 95//77
f 96//78 98//78 94//78 92//78
o Cube.005
v -0.196720 -0.120975 0.522824
v -0.094876 1.012588 0.522824
v -0.196720 -0.120975 0.327124
v -0.094876 1.012588 0.327124
v 0.213358 -0.157818 0.522824
v 0.315202 0.975744 0.522824
v 0.213358 -0.157818 0.327124
v 0.315202 0.975744 0.327124
vn -0.996000 0.089500 0.000000
vn -0.000000 0.000000 -1.000000
vn 0.996000 -0.089500 0.000000
vn 0.000000 0.000000 1.000000
vn -0.089500 -0.996000 0.000000
vn 0.089500 0.996000 0.000000
usemtl Material.002
s off
f 100//79 102//79 101//79 99//79
f 102//80 106//80 105//80 101//80
f 106//81 104//81 103//81 105//81
f 104//82 100//82 99//82 103//82
f 99//83 101//83 105//83 103//83
f 104//84 106//84 102//84 100//84
