# Blender v2.78 (sub 0) OBJ File: 'project.blend'
# www.blender.org
mtllib map9.mtl
o Plane.004_Plane.005
v -16.176708 2.136901 15.504305
v 16.154720 3.474551 15.504305
v -16.176708 2.860319 -16.827126
v 16.154720 3.997541 -16.827126
v -16.176708 1.233369 -0.661411
v -0.010993 1.567019 15.504305
v 16.154720 1.636975 -0.661409
v -0.010993 1.978464 -16.827126
v -0.010993 -0.120080 -0.661409
v -16.176708 -0.120080 7.421447
v 8.071864 -0.120080 15.504305
v 16.154720 1.636975 -8.744267
v -8.093850 -0.120080 -16.827126
v -16.176708 -0.120080 -8.744267
v -8.093850 -0.120080 15.504305
v 16.154720 -0.120080 7.421448
v 8.071864 -0.120080 -16.827126
v -0.010993 -0.120080 -8.744267
v -0.010993 -0.120080 7.421448
v -8.093850 -0.120080 -0.661410
v 8.071864 -0.120080 -0.661409
v 8.071864 -0.120080 7.421448
v -8.093850 -0.120080 7.421448
v -8.093850 -0.120080 -8.744267
v 8.071864 -0.120080 -8.744267
v -16.176708 2.136901 11.462876
v 12.113293 3.474551 15.504305
v 16.154720 3.997541 -12.785695
v -12.135279 2.860319 -16.827126
v -16.176708 1.233369 -4.702839
v -4.052422 1.567019 15.504305
v 16.154720 -0.120080 3.380019
v 4.030436 1.978464 -16.827126
v -0.010993 1.978464 -12.785695
v -0.010993 -0.120080 3.380019
v -12.135279 1.233369 -0.661410
v 4.030436 -0.120080 -0.661409
v -16.176708 -0.120080 3.380018
v 4.030436 -0.120080 15.504305
v 16.154720 1.636975 -4.702838
v -4.052422 -0.120080 -16.827126
v -16.176708 2.860319 -12.785696
v -12.135279 2.136901 15.504305
v 16.154720 3.474551 11.462876
v 12.113293 3.997541 -16.827126
v -0.010993 -0.120080 -4.702838
v -0.010993 1.567019 11.462876
v -4.052422 -0.120080 -0.661410
v 12.113293 1.636975 -0.661409
v 8.071864 -0.120080 3.380019
v 8.071864 -0.120080 11.462876
v 4.030436 -0.120080 7.421448
v 12.113293 -0.120080 7.421448
v -8.093850 -0.120080 3.380019
v -8.093850 -0.120080 11.462876
v -12.135279 -0.120080 7.421448
v -4.052422 -0.120080 7.421448
v -8.093850 -0.120080 -12.785695
v -8.093850 -0.120080 -4.702839
v -12.135279 -0.120080 -8.744267
v -4.052422 -0.120080 -8.744267
v 8.071864 -0.120080 -12.785695
v 8.071864 -0.120080 -4.702838
v 4.030436 -0.120080 -8.744267
v 12.113293 1.636975 -8.744267
v 12.113293 1.636975 -4.702838
v 4.030436 -0.120080 -4.702838
v 4.030436 1.978464 -12.785695
v -4.052422 -0.120080 -4.702838
v -12.135279 1.233369 -4.702839
v -12.135279 2.860319 -12.785696
v -4.052422 1.567019 11.462876
v -12.135279 2.136901 11.462876
v -12.135279 -0.120080 3.380018
v 12.113293 3.474551 11.462876
v 4.030436 -0.120080 11.462876
v 4.030436 -0.120080 3.380019
v 12.113293 -0.120080 3.380019
v -4.052422 -0.120080 3.380019
v -4.052422 -0.120080 -12.785695
v 12.113293 3.997541 -12.785695
vt -2.9465 -2.8482
vt -3.9128 -2.7787
vt -3.9616 -3.7649
vt -2.9753 -3.8138
vt 1.6835 -2.6868
vt 0.5551 -2.8007
vt 0.5889 -3.7918
vt 1.7321 -3.7244
vt 1.5818 1.5543
vt 0.5194 1.5363
vt 0.5392 0.4724
vt 1.6022 0.4937
vt -2.6646 1.4823
vt -3.6966 1.4770
vt -3.7103 0.3786
vt -2.7141 0.3694
vt -0.5450 1.5180
vt -1.6097 1.5009
vt -1.5938 0.4366
vt -0.5258 0.4526
vt -0.5772 3.6334
vt -1.6398 3.6468
vt -1.6294 2.5678
vt -0.5632 2.5816
vt -2.9414 3.8409
vt -3.8743 3.7633
vt -3.7276 2.4738
vt -2.7085 2.5453
vt 3.6887 1.5895
vt 2.6393 1.5723
vt 2.6600 0.5153
vt 3.7508 0.5144
vt 3.7686 3.7862
vt 2.6177 3.6893
vt 2.6246 2.6296
vt 3.6772 2.6373
vt 1.5048 3.7310
vt 0.5223 3.7055
vt 0.4980 2.6013
vt 1.5630 2.6144
vt 3.9750 -2.8008
vt 2.7440 -2.6768
vt 2.7335 -3.7004
vt 3.9495 -3.7548
vt 3.7736 -0.4843
vt 2.6903 -0.5456
vt 2.7192 -1.6071
vt 3.7877 -1.5745
vt 1.6268 -0.5691
vt 0.5611 -0.5928
vt 0.5892 -1.6641
vt 1.6539 -1.6336
vt -0.4038 -2.8326
vt -1.5418 -2.7556
vt -1.5352 -3.7892
vt -0.4163 -3.8063
vt -0.5050 -0.6125
vt -1.5661 -0.6307
vt -1.5547 -1.6978
vt -0.4833 -1.6798
vt -2.7148 -0.6433
vt -3.7236 -0.6144
vt -3.7806 -1.6041
vt -2.7306 -1.7058
vt 4.7810 -0.4501
vt 4.8156 -1.5154
vt 4.7459 0.5547
vt 4.9271 -2.7293
vt 4.9616 -3.7408
vt 2.5862 4.7263
vt 1.5050 4.7194
vt 0.4996 4.7054
vt 4.7558 3.7766
vt 4.7149 2.6103
vt 4.7531 4.7764
vt 3.7533 4.7737
vt 4.7092 1.6066
vt -1.5980 4.6693
vt -2.8923 4.7761
vt -3.9036 4.7742
vt -0.5975 4.6672
vn -0.3350 0.9212 0.1979
vn 0.0000 0.9653 0.2612
vn 0.0000 1.0000 0.0000
vn -0.3870 0.9221 0.0000
vn -0.1807 0.9815 0.0625
vn -0.1810 0.9667 0.1810
vn -0.2372 0.9714 0.0000
vn -0.0529 0.9866 0.1545
vn 0.0000 0.9790 0.2036
vn -0.1547 0.9758 0.1547
vn -0.0524 0.9972 0.0524
vn -0.1545 0.9866 0.0529
vn 0.1489 0.9875 -0.0509
vn -0.2768 0.9557 -0.1001
vn -0.0969 0.9905 -0.0969
vn 0.0504 0.9974 -0.0504
vn -0.2769 0.9201 -0.2769
vn 0.0000 0.9347 -0.3555
vn -0.1001 0.9557 -0.2768
vn 0.0412 0.9917 0.1215
vn 0.0409 0.9983 0.0409
vn 0.1215 0.9917 0.0412
vn 0.1216 0.9851 0.1216
vn 0.1926 0.9622 -0.1926
vn 0.0435 0.9913 -0.1237
vn 0.0152 0.9930 -0.1174
vn 0.0668 0.9790 -0.1924
vn -0.1491 0.9775 -0.1491
vn 0.1491 0.9775 -0.1491
vn 0.0509 0.9875 -0.1489
vn -0.0509 0.9875 -0.1489
vn 0.2413 0.9399 0.2413
vn 0.2410 0.9667 0.0856
vn 0.3124 0.9499 0.0000
vn 0.1216 0.9851 -0.1216
vn 0.1215 0.9917 -0.0412
vn 0.1258 0.9911 0.0421
vn 0.1334 0.9838 0.1198
vn -0.0625 0.9815 0.1807
vn -0.0616 0.9962 0.0616
vn 0.1810 0.9667 0.1810
vn -0.1711 0.9753 0.1394
vn -0.1572 0.9875 0.0000
vn 0.2372 0.9714 0.0000
vn -0.2036 0.9790 0.0000
vn -0.1942 0.9728 0.1265
vn 0.0625 0.9815 0.1807
vn -0.2685 0.9431 0.1963
vn 0.0000 0.9870 -0.1609
vn 0.0000 0.9878 0.1555
vn 0.0000 0.9870 0.1609
vn 0.0000 0.9499 0.3124
vn 0.0569 0.9984 0.0000
vn -0.1964 0.9805 0.0000
vn 0.1964 0.9805 0.0000
vn 0.0000 0.9677 -0.2519
vn 0.2519 0.9677 0.0000
vn -0.3555 0.9347 0.0000
usemtl None
s 1
f 81/1/1 28/2/2 4/3/3 45/4/4
f 80/5/5 34/6/6 8/7/7 41/8/7
f 79/9/3 35/10/3 9/11/3 48/12/3
f 78/13/8 32/14/9 7/15/9 49/16/10
f 77/17/3 50/18/11 21/19/12 37/20/3
f 76/21/13 51/22/14 22/23/15 52/24/16
f 75/25/17 44/26/18 16/27/18 53/28/19
f 74/29/20 54/30/21 20/31/22 36/32/23
f 73/33/24 55/34/25 23/35/26 56/36/27
f 72/37/28 47/38/29 19/39/30 57/40/31
f 71/41/32 58/42/33 13/43/34 29/44/34
f 70/45/35 59/46/36 24/47/37 60/48/38
f 69/49/3 46/50/3 18/51/39 61/52/40
f 68/53/41 62/54/42 17/55/43 33/56/44
f 67/57/3 63/58/45 25/59/46 64/60/47
f 66/61/45 40/62/3 12/63/2 65/64/48
f 63/58/45 66/61/45 65/64/48 25/59/46
f 21/19/12 49/16/10 66/61/45 63/58/45
f 49/16/10 7/15/9 40/62/3 66/61/45
f 46/50/3 67/57/3 64/60/47 18/51/39
f 9/11/3 37/20/3 67/57/3 46/50/3
f 37/20/3 21/19/12 63/58/45 67/57/3
f 34/6/6 68/53/41 33/56/44 8/7/7
f 18/51/39 64/60/47 68/53/41 34/6/6
f 64/60/47 25/59/46 62/54/42 68/53/41
f 59/46/36 69/49/3 61/52/40 24/47/37
f 20/31/22 48/12/3 69/49/3 59/46/36
f 48/12/3 9/11/3 46/50/3 69/49/3
f 30/65/49 70/45/35 60/48/38 14/66/50
f 5/67/51 36/32/23 70/45/35 30/65/49
f 36/32/23 20/31/22 59/46/36 70/45/35
f 42/68/52 71/41/32 29/44/34 3/69/3
f 14/66/50 60/48/38 71/41/32 42/68/52
f 60/48/38 24/47/37 58/42/33 71/41/32
f 55/34/25 72/37/28 57/40/31 23/35/26
f 15/70/53 31/71/54 72/37/28 55/34/25
f 31/71/54 6/72/55 47/38/29 72/37/28
f 26/73/56 73/33/24 56/36/27 10/74/56
f 1/75/3 43/76/57 73/33/24 26/73/56
f 43/76/57 15/70/53 55/34/25 73/33/24
f 38/77/51 74/29/20 36/32/23 5/67/51
f 10/74/56 56/36/27 74/29/20 38/77/51
f 56/36/27 23/35/26 54/30/21 74/29/20
f 51/22/14 75/25/17 53/28/19 22/23/15
f 11/78/58 27/79/58 75/25/17 51/22/14
f 27/79/58 2/80/3 44/26/18 75/25/17
f 47/38/29 76/21/13 52/24/16 19/39/30
f 6/72/55 39/81/55 76/21/13 47/38/29
f 39/81/55 11/78/58 51/22/14 76/21/13
f 35/10/3 77/17/3 37/20/3 9/11/3
f 19/39/30 52/24/16 77/17/3 35/10/3
f 52/24/16 22/23/15 50/18/11 77/17/3
f 50/18/11 78/13/8 49/16/10 21/19/12
f 22/23/15 53/28/19 78/13/8 50/18/11
f 53/28/19 16/27/18 32/14/9 78/13/8
f 54/30/21 79/9/3 48/12/3 20/31/22
f 23/35/26 57/40/31 79/9/3 54/30/21
f 57/40/31 19/39/30 35/10/3 79/9/3
f 58/42/33 80/5/5 41/8/7 13/43/34
f 24/47/37 61/52/40 80/5/5 58/42/33
f 61/52/40 18/51/39 34/6/6 80/5/5
f 62/54/42 81/1/1 45/4/4 17/55/43
f 25/59/46 65/64/48 81/1/1 62/54/42
f 65/64/48 12/63/2 28/2/2 81/1/1
